STARTFONT 2.1
FONT -FontForge-Bebas Neue-Book-R-Normal--25-240-75-75-P-92-ISO10646-1
SIZE 24 75 75
FONTBOUNDINGBOX 25 28 -5 -5
COMMENT "Generated by fontforge, http://fontforge.sourceforge.net"
COMMENT "Copyright 2019 The Bebas Neue Project Authors (https://github.com/dharmatype/Bebas-Neue)"
STARTPROPERTIES 40
FOUNDRY "FontForge"
FAMILY_NAME "Bebas Neue"
WEIGHT_NAME "Book"
SLANT "R"
SETWIDTH_NAME "Normal"
ADD_STYLE_NAME ""
PIXEL_SIZE 25
POINT_SIZE 240
RESOLUTION_X 75
RESOLUTION_Y 75
SPACING "P"
AVERAGE_WIDTH 92
CHARSET_REGISTRY "ISO10646"
CHARSET_ENCODING "1"
FONTNAME_REGISTRY ""
CHARSET_COLLECTIONS "ISO8859-2 ISO8859-9 ISO8859-4 Symbol ISO10646-1"
FONT_NAME "BebasNeue-Regular"
FACE_NAME "Bebas Neue Regular"
COPYRIGHT "Copyright 2019 The Bebas Neue Project Authors (https://github.com/dharmatype/Bebas-Neue)"
FONT_VERSION "2.000"
FONT_ASCENT 20
FONT_DESCENT 5
UNDERLINE_POSITION -2
UNDERLINE_THICKNESS 2
X_HEIGHT 17
CAP_HEIGHT 17
RAW_ASCENT 800
RAW_DESCENT 200
NORM_SPACE 4
RELATIVE_WEIGHT 40
RELATIVE_SETWIDTH 50
SUPERSCRIPT_X 0
SUPERSCRIPT_Y 8
SUPERSCRIPT_SIZE 15
SUBSCRIPT_X 0
SUBSCRIPT_Y 1
SUBSCRIPT_SIZE 15
FIGURE_WIDTH 10
AVG_LOWERCASE_WIDTH 97
AVG_UPPERCASE_WIDTH 97
ENDPROPERTIES
CHARS 497
STARTCHAR nonmarkingreturn
ENCODING 13
SWIDTH 160 0
DWIDTH 4 0
BBX 1 1 0 0
BITMAP
00
ENDCHAR
STARTCHAR space
ENCODING 32
SWIDTH 160 0
DWIDTH 4 0
BBX 1 1 0 0
BITMAP
00
ENDCHAR
STARTCHAR exclam
ENCODING 33
SWIDTH 210 0
DWIDTH 5 0
BBX 3 18 1 0
BITMAP
E0
E0
E0
E0
E0
E0
E0
E0
E0
E0
E0
60
60
00
00
E0
E0
E0
ENDCHAR
STARTCHAR quotedbl
ENCODING 34
SWIDTH 336 0
DWIDTH 8 0
BBX 6 6 1 12
BITMAP
EC
EC
CC
CC
CC
4C
ENDCHAR
STARTCHAR numbersign
ENCODING 35
SWIDTH 412 0
DWIDTH 10 0
BBX 10 18 0 0
BITMAP
1980
1980
1980
1B80
7FC0
7FC0
7FC0
3300
3300
3300
7F80
FF80
FF80
3300
7700
7700
6600
6600
ENDCHAR
STARTCHAR dollar
ENCODING 36
SWIDTH 400 0
DWIDTH 10 0
BBX 8 20 1 -1
BITMAP
18
18
7E
FF
E7
E7
E0
E0
70
3C
1E
0E
07
E7
E7
E7
FF
7E
18
18
ENDCHAR
STARTCHAR percent
ENCODING 37
SWIDTH 589 0
DWIDTH 15 0
BBX 13 18 1 0
BITMAP
7060
F8C0
D8C0
D880
D980
D980
DB00
DB00
FAF0
76F8
0698
0498
0C98
0C98
1898
1898
10F8
30F0
ENDCHAR
STARTCHAR ampersand
ENCODING 38
SWIDTH 417 0
DWIDTH 10 0
BBX 9 18 1 0
BITMAP
3E00
7E00
FE00
E000
E000
E700
E700
7F80
3F80
7F80
E700
E700
E700
E700
E700
FF00
FF00
7B00
ENDCHAR
STARTCHAR quotesingle
ENCODING 39
SWIDTH 188 0
DWIDTH 5 0
BBX 3 6 1 12
BITMAP
E0
E0
C0
C0
C0
40
ENDCHAR
STARTCHAR parenleft
ENCODING 40
SWIDTH 276 0
DWIDTH 7 0
BBX 5 21 1 -1
BITMAP
08
78
78
E0
E0
E0
E0
E0
E0
E0
E0
E0
E0
E0
E0
E0
E0
E0
F8
78
38
ENDCHAR
STARTCHAR parenright
ENCODING 41
SWIDTH 276 0
DWIDTH 7 0
BBX 5 21 1 -1
BITMAP
C0
F0
F0
38
38
38
38
38
38
38
38
38
38
38
38
38
38
38
F0
F0
E0
ENDCHAR
STARTCHAR asterisk
ENCODING 42
SWIDTH 422 0
DWIDTH 11 0
BBX 10 9 0 9
BITMAP
0C00
0C00
4C40
75C0
FFC0
0E00
1B00
3300
3180
ENDCHAR
STARTCHAR plus
ENCODING 43
SWIDTH 400 0
DWIDTH 10 0
BBX 8 9 1 4
BITMAP
18
18
18
18
FF
FF
FF
18
18
ENDCHAR
STARTCHAR comma
ENCODING 44
SWIDTH 188 0
DWIDTH 5 0
BBX 3 6 1 -3
BITMAP
E0
E0
E0
40
C0
C0
ENDCHAR
STARTCHAR hyphen
ENCODING 45
SWIDTH 270 0
DWIDTH 7 0
BBX 5 3 1 8
BITMAP
F8
F8
F8
ENDCHAR
STARTCHAR period
ENCODING 46
SWIDTH 188 0
DWIDTH 5 0
BBX 3 3 1 0
BITMAP
E0
E0
E0
ENDCHAR
STARTCHAR slash
ENCODING 47
SWIDTH 389 0
DWIDTH 10 0
BBX 10 18 0 0
BITMAP
01C0
0180
0380
0300
0700
0600
0600
0E00
0C00
1C00
1800
1800
3800
3000
3000
7000
6000
E000
ENDCHAR
STARTCHAR zero
ENCODING 48
SWIDTH 400 0
DWIDTH 10 0
BBX 8 18 1 0
BITMAP
3C
7E
FF
E7
E7
E7
E7
E7
E7
E7
E7
E7
E7
E7
E7
FF
7E
3C
ENDCHAR
STARTCHAR one
ENCODING 49
SWIDTH 400 0
DWIDTH 10 0
BBX 6 18 2 0
BITMAP
0C
1C
FC
FC
FC
1C
1C
1C
1C
1C
1C
1C
1C
1C
1C
1C
1C
1C
ENDCHAR
STARTCHAR two
ENCODING 50
SWIDTH 400 0
DWIDTH 10 0
BBX 8 18 1 0
BITMAP
3C
7E
FF
E7
E7
E7
07
06
0E
1C
38
70
70
E0
E0
FF
FF
FF
ENDCHAR
STARTCHAR three
ENCODING 51
SWIDTH 400 0
DWIDTH 10 0
BBX 8 18 1 0
BITMAP
3C
7E
FF
E7
E7
07
07
1E
1C
1E
07
07
C7
C7
C7
FF
7E
3C
ENDCHAR
STARTCHAR four
ENCODING 52
SWIDTH 400 0
DWIDTH 10 0
BBX 10 18 0 0
BITMAP
0700
0700
0F00
0F00
0F00
1F00
1B00
3B00
3300
3300
7300
6300
FFC0
FFC0
FFC0
0300
0300
0300
ENDCHAR
STARTCHAR five
ENCODING 53
SWIDTH 400 0
DWIDTH 10 0
BBX 8 18 1 0
BITMAP
FF
FF
FF
E0
E0
E4
FE
FF
E7
E7
07
07
E7
E7
E7
FF
7E
3C
ENDCHAR
STARTCHAR six
ENCODING 54
SWIDTH 400 0
DWIDTH 10 0
BBX 8 18 1 0
BITMAP
3C
7E
FF
E7
E3
E0
E4
FE
FF
E7
E7
E7
E7
E7
E7
FF
7E
3C
ENDCHAR
STARTCHAR seven
ENCODING 55
SWIDTH 400 0
DWIDTH 10 0
BBX 8 18 1 0
BITMAP
FF
FF
FF
07
07
06
0E
0E
0C
1C
1C
1C
18
38
38
38
70
70
ENDCHAR
STARTCHAR eight
ENCODING 56
SWIDTH 400 0
DWIDTH 10 0
BBX 8 18 1 0
BITMAP
3C
7E
FF
E7
E7
E7
E7
FF
7E
FF
E7
C3
C3
C3
E7
FF
FF
3C
ENDCHAR
STARTCHAR nine
ENCODING 57
SWIDTH 400 0
DWIDTH 10 0
BBX 8 18 1 0
BITMAP
3C
7E
FF
E7
E7
E7
E7
E7
E7
FF
7F
27
07
C7
C7
FF
7E
3C
ENDCHAR
STARTCHAR colon
ENCODING 58
SWIDTH 188 0
DWIDTH 5 0
BBX 3 12 1 0
BITMAP
E0
E0
E0
00
00
00
00
00
00
E0
E0
E0
ENDCHAR
STARTCHAR semicolon
ENCODING 59
SWIDTH 188 0
DWIDTH 5 0
BBX 3 15 1 -3
BITMAP
E0
E0
E0
00
00
00
00
00
00
E0
E0
E0
40
C0
80
ENDCHAR
STARTCHAR less
ENCODING 60
SWIDTH 400 0
DWIDTH 10 0
BBX 8 8 1 5
BITMAP
01
0F
3E
F0
E0
78
1F
07
ENDCHAR
STARTCHAR equal
ENCODING 61
SWIDTH 400 0
DWIDTH 10 0
BBX 8 7 1 6
BITMAP
FF
FF
FF
00
FF
FF
FF
ENDCHAR
STARTCHAR greater
ENCODING 62
SWIDTH 400 0
DWIDTH 10 0
BBX 8 8 1 5
BITMAP
80
F0
7C
0F
07
1E
F8
E0
ENDCHAR
STARTCHAR question
ENCODING 63
SWIDTH 363 0
DWIDTH 9 0
BBX 9 18 0 0
BITMAP
3E00
7F00
7F00
6380
E380
E380
0700
0700
0E00
0E00
1C00
1800
1800
0000
0000
1800
1800
1800
ENDCHAR
STARTCHAR at
ENCODING 64
SWIDTH 696 0
DWIDTH 17 0
BBX 16 21 1 -1
BITMAP
00C0
07F8
1FFC
3C1E
7806
7137
E7F3
E7F3
CE73
CE73
CE63
CE66
CC66
CEFE
CFFC
E778
E000
7008
3FF8
3FF8
0FE0
ENDCHAR
STARTCHAR A
ENCODING 65
SWIDTH 401 0
DWIDTH 10 0
BBX 10 18 0 0
BITMAP
1E00
1E00
1E00
1E00
3F00
3F00
3700
3300
3300
3300
7380
7380
7F80
7F80
6380
6180
6180
E1C0
ENDCHAR
STARTCHAR B
ENCODING 66
SWIDTH 404 0
DWIDTH 10 0
BBX 9 18 1 0
BITMAP
FE00
FF00
FF00
E700
E700
E700
E700
FF00
FE00
FF00
E700
E300
E380
E380
E300
FF00
FF00
FE00
ENDCHAR
STARTCHAR C
ENCODING 67
SWIDTH 383 0
DWIDTH 10 0
BBX 8 18 1 0
BITMAP
3C
7E
FF
E7
E7
E7
E0
E0
E0
E0
E0
E7
E7
E7
E7
FF
7E
3C
ENDCHAR
STARTCHAR D
ENCODING 68
SWIDTH 406 0
DWIDTH 10 0
BBX 8 18 1 0
BITMAP
FC
FF
FF
E7
E3
E3
E3
E3
E3
E3
E3
E3
E3
E3
E7
FF
FF
FE
ENDCHAR
STARTCHAR E
ENCODING 69
SWIDTH 363 0
DWIDTH 9 0
BBX 8 18 1 0
BITMAP
FF
FF
FF
E0
E0
E0
E0
FE
FE
FE
E0
E0
E0
E0
E0
FF
FF
FF
ENDCHAR
STARTCHAR F
ENCODING 70
SWIDTH 344 0
DWIDTH 9 0
BBX 7 18 1 0
BITMAP
FE
FE
FE
E0
E0
E0
E0
E0
FC
FC
FC
E0
E0
E0
E0
E0
E0
E0
ENDCHAR
STARTCHAR G
ENCODING 71
SWIDTH 391 0
DWIDTH 10 0
BBX 8 18 1 0
BITMAP
3C
7E
FF
E7
E7
E7
E0
E0
EF
EF
EF
E7
E7
E7
E7
FF
7E
3C
ENDCHAR
STARTCHAR H
ENCODING 72
SWIDTH 420 0
DWIDTH 11 0
BBX 8 18 1 0
BITMAP
E3
E3
E3
E3
E3
E3
E3
FF
FF
FF
E3
E3
E3
E3
E3
E3
E3
E3
ENDCHAR
STARTCHAR I
ENCODING 73
SWIDTH 192 0
DWIDTH 5 0
BBX 3 18 1 0
BITMAP
E0
E0
E0
E0
E0
E0
E0
E0
E0
E0
E0
E0
E0
E0
E0
E0
E0
E0
ENDCHAR
STARTCHAR J
ENCODING 74
SWIDTH 265 0
DWIDTH 7 0
BBX 6 18 0 0
BITMAP
1C
1C
1C
1C
1C
1C
1C
1C
1C
1C
1C
1C
1C
1C
1C
F8
F8
F0
ENDCHAR
STARTCHAR K
ENCODING 75
SWIDTH 414 0
DWIDTH 10 0
BBX 9 18 1 0
BITMAP
E380
E300
E700
E600
EE00
EC00
FC00
FC00
FC00
FE00
FE00
EE00
E600
E700
E700
E700
E380
E380
ENDCHAR
STARTCHAR L
ENCODING 76
SWIDTH 344 0
DWIDTH 9 0
BBX 7 18 1 0
BITMAP
E0
E0
E0
E0
E0
E0
E0
E0
E0
E0
E0
E0
E0
E0
E0
FE
FE
FE
ENDCHAR
STARTCHAR M
ENCODING 77
SWIDTH 538 0
DWIDTH 13 0
BBX 11 18 1 0
BITMAP
F1E0
F1E0
F1E0
F1E0
F9E0
D9E0
D9E0
DB60
DB60
DB60
DB60
DB60
CF60
CE60
CE60
CE60
CE60
CE60
ENDCHAR
STARTCHAR N
ENCODING 78
SWIDTH 427 0
DWIDTH 11 0
BBX 9 18 1 0
BITMAP
F380
F380
F380
F380
FB80
DB80
DB80
DB80
DF80
CF80
CF80
CF80
CF80
C780
C780
C780
C780
C380
ENDCHAR
STARTCHAR O
ENCODING 79
SWIDTH 400 0
DWIDTH 10 0
BBX 8 18 1 0
BITMAP
3C
7E
FF
E7
E7
E7
E7
E7
E7
E7
E7
E7
E7
E7
E7
FF
7E
3C
ENDCHAR
STARTCHAR P
ENCODING 80
SWIDTH 386 0
DWIDTH 10 0
BBX 8 18 1 0
BITMAP
FC
FE
FF
E7
E7
E7
E7
E7
FF
FE
FC
E0
E0
E0
E0
E0
E0
E0
ENDCHAR
STARTCHAR Q
ENCODING 81
SWIDTH 400 0
DWIDTH 10 0
BBX 9 20 1 -2
BITMAP
3C00
7E00
FF00
E700
E700
E700
E700
E700
E700
E700
E700
E700
E700
E700
E700
FF00
7E00
3F80
0380
0080
ENDCHAR
STARTCHAR R
ENCODING 82
SWIDTH 403 0
DWIDTH 10 0
BBX 9 18 1 0
BITMAP
FC00
FF00
FF00
E700
E700
E700
E700
E700
FE00
FE00
FF00
E700
E700
E700
E700
E700
E700
E380
ENDCHAR
STARTCHAR S
ENCODING 83
SWIDTH 372 0
DWIDTH 9 0
BBX 8 18 1 0
BITMAP
3C
FE
FE
C7
C7
E0
E0
70
78
3C
1E
0E
07
C7
C7
FE
FE
7C
ENDCHAR
STARTCHAR T
ENCODING 84
SWIDTH 364 0
DWIDTH 9 0
BBX 9 18 0 0
BITMAP
FF80
FF80
FF80
1C00
1C00
1C00
1C00
1C00
1C00
1C00
1C00
1C00
1C00
1C00
1C00
1C00
1C00
1C00
ENDCHAR
STARTCHAR U
ENCODING 85
SWIDTH 402 0
DWIDTH 10 0
BBX 8 18 1 0
BITMAP
E7
E7
E7
E7
E7
E7
E7
E7
E7
E7
E7
E7
E7
E7
E7
FF
7E
3C
ENDCHAR
STARTCHAR V
ENCODING 86
SWIDTH 382 0
DWIDTH 10 0
BBX 9 18 0 0
BITMAP
E180
6180
6380
7380
7380
7300
7300
7300
3300
3700
3700
3F00
3E00
3E00
3E00
1E00
1E00
1E00
ENDCHAR
STARTCHAR W
ENCODING 87
SWIDTH 557 0
DWIDTH 14 0
BBX 14 18 0 0
BITMAP
E39C
6798
6798
6798
6798
7798
7798
77B8
77B8
77B8
76F8
3CF0
3CF0
3CF0
3CF0
3CF0
3CF0
3CF0
ENDCHAR
STARTCHAR X
ENCODING 88
SWIDTH 406 0
DWIDTH 10 0
BBX 10 18 0 0
BITMAP
E1C0
7180
7380
3380
3B00
3F00
1F00
1E00
1E00
1E00
1E00
1F00
3F00
3300
7380
7380
6380
E1C0
ENDCHAR
STARTCHAR Y
ENCODING 89
SWIDTH 394 0
DWIDTH 10 0
BBX 10 18 0 0
BITMAP
E1C0
7180
7380
7380
3300
3F00
3F00
1E00
1E00
1E00
0C00
0C00
0C00
0C00
0C00
0C00
0C00
0C00
ENDCHAR
STARTCHAR Z
ENCODING 90
SWIDTH 362 0
DWIDTH 9 0
BBX 9 18 0 0
BITMAP
7F80
7F80
7F80
0700
0700
0E00
0E00
0E00
1C00
1C00
3800
3800
3800
7000
7000
FF80
FF80
FF80
ENDCHAR
STARTCHAR bracketleft
ENCODING 91
SWIDTH 276 0
DWIDTH 7 0
BBX 5 21 1 -1
BITMAP
F8
F8
F8
E0
E0
E0
E0
E0
E0
E0
E0
E0
E0
E0
E0
E0
E0
E0
F8
F8
F8
ENDCHAR
STARTCHAR backslash
ENCODING 92
SWIDTH 389 0
DWIDTH 10 0
BBX 10 18 0 0
BITMAP
E000
6000
7000
3000
3000
3800
1800
1800
1C00
0C00
0E00
0600
0600
0700
0300
0380
0180
01C0
ENDCHAR
STARTCHAR bracketright
ENCODING 93
SWIDTH 276 0
DWIDTH 7 0
BBX 4 21 1 -1
BITMAP
F0
F0
F0
30
30
30
30
30
30
30
30
30
30
30
30
30
30
30
F0
F0
F0
ENDCHAR
STARTCHAR asciicircum
ENCODING 94
SWIDTH 400 0
DWIDTH 10 0
BBX 9 7 0 11
BITMAP
0C00
1E00
1E00
3F00
3300
7380
E180
ENDCHAR
STARTCHAR underscore
ENCODING 95
SWIDTH 300 0
DWIDTH 8 0
BBX 8 3 0 -2
BITMAP
FF
FF
FF
ENDCHAR
STARTCHAR grave
ENCODING 96
SWIDTH 500 0
DWIDTH 13 0
BBX 5 3 3 19
BITMAP
E0
70
38
ENDCHAR
STARTCHAR a
ENCODING 97
SWIDTH 401 0
DWIDTH 10 0
BBX 10 18 0 0
BITMAP
1E00
1E00
1E00
1E00
3F00
3F00
3700
3300
3300
3300
7380
7380
7F80
7F80
6380
6180
6180
E1C0
ENDCHAR
STARTCHAR b
ENCODING 98
SWIDTH 404 0
DWIDTH 10 0
BBX 9 18 1 0
BITMAP
FE00
FF00
FF00
E700
E700
E700
E700
FF00
FE00
FF00
E700
E300
E380
E380
E300
FF00
FF00
FE00
ENDCHAR
STARTCHAR c
ENCODING 99
SWIDTH 383 0
DWIDTH 10 0
BBX 8 18 1 0
BITMAP
3C
7E
FF
E7
E7
E7
E0
E0
E0
E0
E0
E7
E7
E7
E7
FF
7E
3C
ENDCHAR
STARTCHAR d
ENCODING 100
SWIDTH 406 0
DWIDTH 10 0
BBX 8 18 1 0
BITMAP
FC
FF
FF
E7
E3
E3
E3
E3
E3
E3
E3
E3
E3
E3
E7
FF
FF
FE
ENDCHAR
STARTCHAR e
ENCODING 101
SWIDTH 363 0
DWIDTH 9 0
BBX 8 18 1 0
BITMAP
FF
FF
FF
E0
E0
E0
E0
FE
FE
FE
E0
E0
E0
E0
E0
FF
FF
FF
ENDCHAR
STARTCHAR f
ENCODING 102
SWIDTH 344 0
DWIDTH 9 0
BBX 7 18 1 0
BITMAP
FE
FE
FE
E0
E0
E0
E0
E0
FC
FC
FC
E0
E0
E0
E0
E0
E0
E0
ENDCHAR
STARTCHAR g
ENCODING 103
SWIDTH 391 0
DWIDTH 10 0
BBX 8 18 1 0
BITMAP
3C
7E
FF
E7
E7
E7
E0
E0
EF
EF
EF
E7
E7
E7
E7
FF
7E
3C
ENDCHAR
STARTCHAR h
ENCODING 104
SWIDTH 420 0
DWIDTH 11 0
BBX 8 18 1 0
BITMAP
E3
E3
E3
E3
E3
E3
E3
FF
FF
FF
E3
E3
E3
E3
E3
E3
E3
E3
ENDCHAR
STARTCHAR i
ENCODING 105
SWIDTH 192 0
DWIDTH 5 0
BBX 3 18 1 0
BITMAP
E0
E0
E0
E0
E0
E0
E0
E0
E0
E0
E0
E0
E0
E0
E0
E0
E0
E0
ENDCHAR
STARTCHAR j
ENCODING 106
SWIDTH 265 0
DWIDTH 7 0
BBX 6 18 0 0
BITMAP
1C
1C
1C
1C
1C
1C
1C
1C
1C
1C
1C
1C
1C
1C
1C
F8
F8
F0
ENDCHAR
STARTCHAR k
ENCODING 107
SWIDTH 414 0
DWIDTH 10 0
BBX 9 18 1 0
BITMAP
E380
E300
E700
E600
EE00
EC00
FC00
FC00
FC00
FE00
FE00
EE00
E600
E700
E700
E700
E380
E380
ENDCHAR
STARTCHAR l
ENCODING 108
SWIDTH 344 0
DWIDTH 9 0
BBX 7 18 1 0
BITMAP
E0
E0
E0
E0
E0
E0
E0
E0
E0
E0
E0
E0
E0
E0
E0
FE
FE
FE
ENDCHAR
STARTCHAR m
ENCODING 109
SWIDTH 538 0
DWIDTH 13 0
BBX 11 18 1 0
BITMAP
F1E0
F1E0
F1E0
F1E0
F9E0
D9E0
D9E0
DB60
DB60
DB60
DB60
DB60
CF60
CE60
CE60
CE60
CE60
CE60
ENDCHAR
STARTCHAR n
ENCODING 110
SWIDTH 427 0
DWIDTH 11 0
BBX 9 18 1 0
BITMAP
F380
F380
F380
F380
FB80
DB80
DB80
DB80
DF80
CF80
CF80
CF80
CF80
C780
C780
C780
C780
C380
ENDCHAR
STARTCHAR o
ENCODING 111
SWIDTH 400 0
DWIDTH 10 0
BBX 8 18 1 0
BITMAP
3C
7E
FF
E7
E7
E7
E7
E7
E7
E7
E7
E7
E7
E7
E7
FF
7E
3C
ENDCHAR
STARTCHAR p
ENCODING 112
SWIDTH 386 0
DWIDTH 10 0
BBX 8 18 1 0
BITMAP
FC
FE
FF
E7
E7
E7
E7
E7
FF
FE
FC
E0
E0
E0
E0
E0
E0
E0
ENDCHAR
STARTCHAR q
ENCODING 113
SWIDTH 400 0
DWIDTH 10 0
BBX 9 20 1 -2
BITMAP
3C00
7E00
FF00
E700
E700
E700
E700
E700
E700
E700
E700
E700
E700
E700
E700
FF00
7E00
3F80
0380
0080
ENDCHAR
STARTCHAR r
ENCODING 114
SWIDTH 403 0
DWIDTH 10 0
BBX 9 18 1 0
BITMAP
FC00
FF00
FF00
E700
E700
E700
E700
E700
FE00
FE00
FF00
E700
E700
E700
E700
E700
E700
E380
ENDCHAR
STARTCHAR s
ENCODING 115
SWIDTH 372 0
DWIDTH 9 0
BBX 8 18 1 0
BITMAP
3C
FE
FE
C7
C7
E0
E0
70
78
3C
1E
0E
07
C7
C7
FE
FE
7C
ENDCHAR
STARTCHAR t
ENCODING 116
SWIDTH 364 0
DWIDTH 9 0
BBX 9 18 0 0
BITMAP
FF80
FF80
FF80
1C00
1C00
1C00
1C00
1C00
1C00
1C00
1C00
1C00
1C00
1C00
1C00
1C00
1C00
1C00
ENDCHAR
STARTCHAR u
ENCODING 117
SWIDTH 402 0
DWIDTH 10 0
BBX 8 18 1 0
BITMAP
E7
E7
E7
E7
E7
E7
E7
E7
E7
E7
E7
E7
E7
E7
E7
FF
7E
3C
ENDCHAR
STARTCHAR v
ENCODING 118
SWIDTH 382 0
DWIDTH 10 0
BBX 9 18 0 0
BITMAP
E180
6180
6380
7380
7380
7300
7300
7300
3300
3700
3700
3F00
3E00
3E00
3E00
1E00
1E00
1E00
ENDCHAR
STARTCHAR w
ENCODING 119
SWIDTH 557 0
DWIDTH 14 0
BBX 14 18 0 0
BITMAP
E39C
6798
6798
6798
6798
7798
7798
77B8
77B8
77B8
76F8
3CF0
3CF0
3CF0
3CF0
3CF0
3CF0
3CF0
ENDCHAR
STARTCHAR x
ENCODING 120
SWIDTH 406 0
DWIDTH 10 0
BBX 10 18 0 0
BITMAP
E1C0
7180
7380
3380
3B00
3F00
1F00
1E00
1E00
1E00
1E00
1F00
3F00
3300
7380
7380
6380
E1C0
ENDCHAR
STARTCHAR y
ENCODING 121
SWIDTH 394 0
DWIDTH 10 0
BBX 10 18 0 0
BITMAP
E1C0
7180
7380
7380
3300
3F00
3F00
1E00
1E00
1E00
0C00
0C00
0C00
0C00
0C00
0C00
0C00
0C00
ENDCHAR
STARTCHAR z
ENCODING 122
SWIDTH 362 0
DWIDTH 9 0
BBX 9 18 0 0
BITMAP
7F80
7F80
7F80
0700
0700
0E00
0E00
0E00
1C00
1C00
3800
3800
3800
7000
7000
FF80
FF80
FF80
ENDCHAR
STARTCHAR braceleft
ENCODING 123
SWIDTH 276 0
DWIDTH 7 0
BBX 5 21 1 -1
BITMAP
18
38
78
70
70
70
70
70
70
E0
C0
E0
70
70
70
70
70
70
78
78
38
ENDCHAR
STARTCHAR bar
ENCODING 124
SWIDTH 500 0
DWIDTH 13 0
BBX 2 25 5 -5
BITMAP
C0
C0
C0
C0
C0
C0
C0
C0
C0
C0
C0
C0
C0
C0
C0
C0
C0
C0
C0
C0
C0
C0
C0
C0
C0
ENDCHAR
STARTCHAR braceright
ENCODING 125
SWIDTH 276 0
DWIDTH 7 0
BBX 5 21 1 -1
BITMAP
C0
E0
F0
70
70
70
70
70
70
78
38
38
70
70
70
70
70
70
F0
F0
E0
ENDCHAR
STARTCHAR asciitilde
ENCODING 126
SWIDTH 400 0
DWIDTH 10 0
BBX 10 4 0 7
BITMAP
1080
7FC0
FF80
4700
ENDCHAR
STARTCHAR uni00A0
ENCODING 160
SWIDTH 160 0
DWIDTH 4 0
BBX 1 1 0 0
BITMAP
00
ENDCHAR
STARTCHAR exclamdown
ENCODING 161
SWIDTH 210 0
DWIDTH 5 0
BBX 3 18 1 0
BITMAP
E0
E0
E0
00
00
60
E0
E0
E0
E0
E0
E0
E0
E0
E0
E0
E0
E0
ENDCHAR
STARTCHAR cent
ENCODING 162
SWIDTH 400 0
DWIDTH 10 0
BBX 8 18 1 0
BITMAP
18
18
7E
FF
E7
E3
E3
E0
E0
E0
E0
E3
E3
E7
7F
7E
18
18
ENDCHAR
STARTCHAR sterling
ENCODING 163
SWIDTH 400 0
DWIDTH 10 0
BBX 8 18 1 0
BITMAP
3C
7E
FF
E3
E3
E3
60
70
70
FE
FE
FE
38
30
70
FF
FF
FF
ENDCHAR
STARTCHAR currency
ENCODING 164
SWIDTH 400 0
DWIDTH 10 0
BBX 8 9 1 5
BITMAP
81
DB
7E
7E
66
7E
7E
FB
41
ENDCHAR
STARTCHAR yen
ENCODING 165
SWIDTH 400 0
DWIDTH 10 0
BBX 10 18 0 0
BITMAP
E1C0
7180
7380
7380
3300
3B00
3F00
1E00
1E00
1E00
7F80
7F80
0C00
7F80
7F80
0C00
0C00
0C00
ENDCHAR
STARTCHAR brokenbar
ENCODING 166
SWIDTH 500 0
DWIDTH 13 0
BBX 2 25 5 -5
BITMAP
C0
C0
C0
C0
C0
C0
C0
C0
C0
C0
00
00
00
00
00
C0
C0
C0
C0
C0
C0
C0
C0
C0
C0
ENDCHAR
STARTCHAR section
ENCODING 167
SWIDTH 400 0
DWIDTH 10 0
BBX 8 21 1 -3
BITMAP
3C
7E
FF
E7
E3
E0
7C
7E
FF
C7
C3
C3
FF
7E
3E
07
C7
E7
FF
FE
3C
ENDCHAR
STARTCHAR dieresis
ENCODING 168
SWIDTH 500 0
DWIDTH 13 0
BBX 6 3 3 19
BITMAP
EC
EC
EC
ENDCHAR
STARTCHAR copyright
ENCODING 169
SWIDTH 738 0
DWIDTH 18 0
BBX 17 18 1 0
BITMAP
07E000
1FF800
381C00
71C600
63E300
C66300
C66180
860180
860180
860180
866180
C66180
C66300
63E300
71C600
381C00
1FF800
07E000
ENDCHAR
STARTCHAR ordfeminine
ENCODING 170
SWIDTH 280 0
DWIDTH 7 0
BBX 5 13 1 6
BITMAP
20
F8
D8
18
18
F8
D8
D8
F8
E8
00
F8
F8
ENDCHAR
STARTCHAR guillemotleft
ENCODING 171
SWIDTH 336 0
DWIDTH 8 0
BBX 8 6 0 6
BITMAP
33
76
EE
6E
76
33
ENDCHAR
STARTCHAR logicalnot
ENCODING 172
SWIDTH 400 0
DWIDTH 10 0
BBX 8 6 1 5
BITMAP
FF
FF
FF
03
03
03
ENDCHAR
STARTCHAR uni00AD
ENCODING 173
SWIDTH 270 0
DWIDTH 7 0
BBX 5 3 1 8
BITMAP
F8
F8
F8
ENDCHAR
STARTCHAR registered
ENCODING 174
SWIDTH 738 0
DWIDTH 18 0
BBX 17 18 1 0
BITMAP
07E000
1FF800
381C00
77C600
67E300
C66300
C66180
866180
87E180
87E180
866180
C66180
C66300
666300
700600
381C00
1FF800
07E000
ENDCHAR
STARTCHAR macron
ENCODING 175
SWIDTH 500 0
DWIDTH 13 0
BBX 6 3 3 19
BITMAP
FC
FC
FC
ENDCHAR
STARTCHAR degree
ENCODING 176
SWIDTH 400 0
DWIDTH 10 0
BBX 6 6 2 12
BITMAP
78
FC
CC
CC
FC
78
ENDCHAR
STARTCHAR plusminus
ENCODING 177
SWIDTH 400 0
DWIDTH 10 0
BBX 8 10 1 4
BITMAP
18
18
18
FF
FF
18
18
18
FF
FF
ENDCHAR
STARTCHAR uni00B2
ENCODING 178
SWIDTH 282 0
DWIDTH 7 0
BBX 5 11 1 9
BITMAP
70
F8
D8
D8
18
30
60
C0
C0
F8
F8
ENDCHAR
STARTCHAR uni00B3
ENCODING 179
SWIDTH 282 0
DWIDTH 7 0
BBX 5 11 1 9
BITMAP
70
F8
D8
18
30
38
18
D8
D8
F8
70
ENDCHAR
STARTCHAR acute
ENCODING 180
SWIDTH 500 0
DWIDTH 13 0
BBX 5 3 5 19
BITMAP
78
60
C0
ENDCHAR
STARTCHAR uni00B5
ENCODING 181
SWIDTH 405 0
DWIDTH 10 0
BBX 8 17 1 -4
BITMAP
E3
E3
E3
E3
E3
E3
E3
E3
E3
E7
FF
FF
FB
E0
E0
E0
E0
ENDCHAR
STARTCHAR paragraph
ENCODING 182
SWIDTH 449 0
DWIDTH 11 0
BBX 9 21 1 -3
BITMAP
3F80
7F80
FF80
F980
F980
F980
F980
F980
F980
7980
1980
1980
1980
1980
1980
1980
1980
1980
1980
1980
1980
ENDCHAR
STARTCHAR periodcentered
ENCODING 183
SWIDTH 188 0
DWIDTH 5 0
BBX 3 3 1 8
BITMAP
E0
E0
E0
ENDCHAR
STARTCHAR cedilla
ENCODING 184
SWIDTH 500 0
DWIDTH 13 0
BBX 5 4 4 -4
BITMAP
20
30
D8
F0
ENDCHAR
STARTCHAR uni00B9
ENCODING 185
SWIDTH 282 0
DWIDTH 7 0
BBX 4 11 1 9
BITMAP
30
F0
F0
30
30
30
30
30
30
30
30
ENDCHAR
STARTCHAR ordmasculine
ENCODING 186
SWIDTH 282 0
DWIDTH 7 0
BBX 5 13 1 6
BITMAP
20
F8
D8
D8
D8
D8
D8
D8
F8
70
00
F8
F8
ENDCHAR
STARTCHAR guillemotright
ENCODING 187
SWIDTH 335 0
DWIDTH 8 0
BBX 8 6 0 6
BITMAP
EC
66
37
37
66
EC
ENDCHAR
STARTCHAR onequarter
ENCODING 188
SWIDTH 653 0
DWIDTH 16 0
BBX 15 18 1 0
BITMAP
3060
F060
3040
30C0
30C0
3080
318C
318C
331C
331C
323C
063C
062C
046C
0C7E
0C7E
180C
180C
ENDCHAR
STARTCHAR onehalf
ENCODING 189
SWIDTH 653 0
DWIDTH 16 0
BBX 14 18 1 0
BITMAP
3060
F060
3040
30C0
30C0
3080
31B8
31BC
3364
3364
320C
060C
0618
0430
0C20
0C60
187C
187C
ENDCHAR
STARTCHAR threequarters
ENCODING 190
SWIDTH 653 0
DWIDTH 16 0
BBX 15 18 1 0
BITMAP
7060
F860
D840
D8C0
18C0
3080
398C
198C
DB1C
DB1C
FA3C
763C
062C
046C
0C7E
0C7E
180C
180C
ENDCHAR
STARTCHAR questiondown
ENCODING 191
SWIDTH 363 0
DWIDTH 9 0
BBX 9 18 0 0
BITMAP
0C00
0C00
0C00
0000
0000
0C00
0C00
1C00
1800
3800
7000
7000
6380
E380
6380
7F00
7F00
3E00
ENDCHAR
STARTCHAR Agrave
ENCODING 192
SWIDTH 401 0
DWIDTH 10 0
BBX 10 22 0 0
BITMAP
3800
1800
0E00
0000
1E00
1E00
1E00
1E00
3F00
3F00
3700
3300
3300
3300
7380
7380
7F80
7F80
6380
6180
6180
E1C0
ENDCHAR
STARTCHAR Aacute
ENCODING 193
SWIDTH 401 0
DWIDTH 10 0
BBX 10 22 0 0
BITMAP
0700
0600
0C00
0000
1E00
1E00
1E00
1E00
3F00
3F00
3700
3300
3300
3300
7380
7380
7F80
7F80
6380
6180
6180
E1C0
ENDCHAR
STARTCHAR Acircumflex
ENCODING 194
SWIDTH 401 0
DWIDTH 10 0
BBX 10 22 0 0
BITMAP
1E00
1E00
3300
0000
1E00
1E00
1E00
1E00
3F00
3F00
3700
3300
3300
3300
7380
7380
7F80
7F80
6380
6180
6180
E1C0
ENDCHAR
STARTCHAR Atilde
ENCODING 195
SWIDTH 401 0
DWIDTH 10 0
BBX 10 22 0 0
BITMAP
1F80
3F00
3E00
0000
1E00
1E00
1E00
1E00
3F00
3F00
3700
3300
3300
3300
7380
7380
7F80
7F80
6380
6180
6180
E1C0
ENDCHAR
STARTCHAR Adieresis
ENCODING 196
SWIDTH 401 0
DWIDTH 10 0
BBX 10 22 0 0
BITMAP
3300
3300
3300
0000
1E00
1E00
1E00
1E00
3F00
3F00
3700
3300
3300
3300
7380
7380
7F80
7F80
6380
6180
6180
E1C0
ENDCHAR
STARTCHAR Aring
ENCODING 197
SWIDTH 401 0
DWIDTH 10 0
BBX 10 23 0 0
BITMAP
0C00
1200
1200
1E00
0000
1E00
1E00
1E00
1E00
3F00
3F00
3700
3300
3300
3300
7380
7380
7F80
7F80
6380
6180
6180
E1C0
ENDCHAR
STARTCHAR AE
ENCODING 198
SWIDTH 580 0
DWIDTH 15 0
BBX 14 18 0 0
BITMAP
07FC
07FC
0FFC
0F80
0F80
1F80
1F80
1BF8
1BF8
3BF8
3B80
3380
3F80
7F80
7F80
73FC
63FC
E3FC
ENDCHAR
STARTCHAR Ccedilla
ENCODING 199
SWIDTH 383 0
DWIDTH 10 0
BBX 8 22 1 -4
BITMAP
3C
7E
FF
E7
E7
E7
E0
E0
E0
E0
E0
E0
E7
E7
E7
E7
FE
7E
38
1C
6C
3C
ENDCHAR
STARTCHAR Egrave
ENCODING 200
SWIDTH 363 0
DWIDTH 9 0
BBX 8 22 1 0
BITMAP
70
30
18
00
FF
FF
FF
E0
E0
E0
E0
FE
FE
FE
E0
E0
E0
E0
E0
FF
FF
FF
ENDCHAR
STARTCHAR Eacute
ENCODING 201
SWIDTH 363 0
DWIDTH 9 0
BBX 8 22 1 0
BITMAP
0E
1C
38
00
FF
FF
FF
E0
E0
E0
E0
FE
FE
FE
E0
E0
E0
E0
E0
FF
FF
FF
ENDCHAR
STARTCHAR Ecircumflex
ENCODING 202
SWIDTH 363 0
DWIDTH 9 0
BBX 8 22 1 0
BITMAP
38
7C
E6
00
FF
FF
FF
E0
E0
E0
E0
FE
FE
FE
E0
E0
E0
E0
E0
FF
FF
FF
ENDCHAR
STARTCHAR Edieresis
ENCODING 203
SWIDTH 363 0
DWIDTH 9 0
BBX 8 22 1 0
BITMAP
6E
6E
6E
00
FF
FF
FF
E0
E0
E0
E0
FE
FE
FE
E0
E0
E0
E0
E0
FF
FF
FF
ENDCHAR
STARTCHAR Igrave
ENCODING 204
SWIDTH 192 0
DWIDTH 5 0
BBX 5 22 -1 0
BITMAP
E0
70
38
00
38
38
38
38
38
38
38
38
38
38
38
38
38
38
38
38
38
38
ENDCHAR
STARTCHAR Iacute
ENCODING 205
SWIDTH 192 0
DWIDTH 5 0
BBX 5 22 1 0
BITMAP
38
70
E0
00
E0
E0
E0
E0
E0
E0
E0
E0
E0
E0
E0
E0
E0
E0
E0
E0
E0
E0
ENDCHAR
STARTCHAR Icircumflex
ENCODING 206
SWIDTH 192 0
DWIDTH 5 0
BBX 7 22 -1 0
BITMAP
38
7C
EE
00
38
38
38
38
38
38
38
38
38
38
38
38
38
38
38
38
38
38
ENDCHAR
STARTCHAR Idieresis
ENCODING 207
SWIDTH 192 0
DWIDTH 5 0
BBX 7 22 -1 0
BITMAP
EE
EE
EE
00
38
38
38
38
38
38
38
38
38
38
38
38
38
38
38
38
38
38
ENDCHAR
STARTCHAR Eth
ENCODING 208
SWIDTH 423 0
DWIDTH 11 0
BBX 10 18 0 0
BITMAP
7F00
7F80
7F80
71C0
71C0
71C0
71C0
FDC0
FDC0
FDC0
71C0
71C0
71C0
71C0
71C0
7F80
7F80
7F00
ENDCHAR
STARTCHAR Ntilde
ENCODING 209
SWIDTH 427 0
DWIDTH 11 0
BBX 9 22 1 0
BITMAP
3F00
7E00
7E00
0000
F380
F380
F380
F380
FB80
DB80
DB80
DB80
DF80
CF80
CF80
CF80
CF80
C780
C780
C780
C780
C380
ENDCHAR
STARTCHAR Ograve
ENCODING 210
SWIDTH 400 0
DWIDTH 10 0
BBX 8 22 1 0
BITMAP
70
30
1C
00
3C
7E
FF
E7
E7
E7
E7
E7
E7
E7
E7
E7
E7
E7
E7
FF
7E
3C
ENDCHAR
STARTCHAR Oacute
ENCODING 211
SWIDTH 400 0
DWIDTH 10 0
BBX 8 22 1 0
BITMAP
0E
0C
18
20
3C
7E
FF
E7
E7
E7
E7
E7
E7
E7
E7
E7
E7
E7
E7
FF
7E
3C
ENDCHAR
STARTCHAR Ocircumflex
ENCODING 212
SWIDTH 400 0
DWIDTH 10 0
BBX 8 22 1 0
BITMAP
3C
3C
66
00
3C
7E
FF
E7
E7
E7
E7
E7
E7
E7
E7
E7
E7
E7
E7
FF
7E
3C
ENDCHAR
STARTCHAR Otilde
ENCODING 213
SWIDTH 400 0
DWIDTH 10 0
BBX 8 22 1 0
BITMAP
3E
7E
7C
00
3C
7E
FF
E7
E7
E7
E7
E7
E7
E7
E7
E7
E7
E7
E7
FF
7E
3C
ENDCHAR
STARTCHAR Odieresis
ENCODING 214
SWIDTH 400 0
DWIDTH 10 0
BBX 8 22 1 0
BITMAP
66
66
66
00
3C
7E
FF
E7
E7
E7
E7
E7
E7
E7
E7
E7
E7
E7
E7
FF
7E
3C
ENDCHAR
STARTCHAR multiply
ENCODING 215
SWIDTH 400 0
DWIDTH 10 0
BBX 8 8 1 5
BITMAP
42
E7
7E
3C
3C
7E
E7
C2
ENDCHAR
STARTCHAR Oslash
ENCODING 216
SWIDTH 400 0
DWIDTH 10 0
BBX 8 18 1 0
BITMAP
3D
7F
FF
E7
E7
E7
EF
EF
FF
FF
F7
F7
E7
E7
E7
FF
FE
BC
ENDCHAR
STARTCHAR Ugrave
ENCODING 217
SWIDTH 402 0
DWIDTH 10 0
BBX 8 22 1 0
BITMAP
70
30
1C
00
E7
E7
E7
E7
E7
E7
E7
E7
E7
E7
E7
E7
E7
E7
E7
FF
7E
3C
ENDCHAR
STARTCHAR Uacute
ENCODING 218
SWIDTH 402 0
DWIDTH 10 0
BBX 8 22 1 0
BITMAP
0E
0C
18
00
E7
E7
E7
E7
E7
E7
E7
E7
E7
E7
E7
E7
E7
E7
E7
FF
7E
3C
ENDCHAR
STARTCHAR Ucircumflex
ENCODING 219
SWIDTH 402 0
DWIDTH 10 0
BBX 8 22 1 0
BITMAP
3C
3C
66
00
E7
E7
E7
E7
E7
E7
E7
E7
E7
E7
E7
E7
E7
E7
E7
FF
7E
3C
ENDCHAR
STARTCHAR Udieresis
ENCODING 220
SWIDTH 402 0
DWIDTH 10 0
BBX 8 22 1 0
BITMAP
66
66
66
00
E7
E7
E7
E7
E7
E7
E7
E7
E7
E7
E7
E7
E7
E7
E7
FF
7E
3C
ENDCHAR
STARTCHAR Yacute
ENCODING 221
SWIDTH 394 0
DWIDTH 10 0
BBX 10 22 0 0
BITMAP
0700
0E00
1C00
0000
E1C0
7180
7380
7380
3300
3F00
3F00
1E00
1E00
1E00
0C00
0C00
0C00
0C00
0C00
0C00
0C00
0C00
ENDCHAR
STARTCHAR Thorn
ENCODING 222
SWIDTH 386 0
DWIDTH 10 0
BBX 8 18 1 0
BITMAP
E0
E0
E0
FC
FE
FF
E7
E7
E7
E7
E7
FF
FE
F0
E0
E0
E0
E0
ENDCHAR
STARTCHAR germandbls
ENCODING 223
SWIDTH 407 0
DWIDTH 10 0
BBX 9 18 1 0
BITMAP
FF00
FF00
FF00
E700
E700
E600
EE00
EE00
EF00
EF00
E380
E380
E380
E380
E380
EF00
EF00
EE00
ENDCHAR
STARTCHAR agrave
ENCODING 224
SWIDTH 401 0
DWIDTH 10 0
BBX 10 22 0 0
BITMAP
3800
1800
0E00
0000
1E00
1E00
1E00
1E00
3F00
3F00
3700
3300
3300
3300
7380
7380
7F80
7F80
6380
6180
6180
E1C0
ENDCHAR
STARTCHAR aacute
ENCODING 225
SWIDTH 401 0
DWIDTH 10 0
BBX 10 22 0 0
BITMAP
0700
0600
0C00
0000
1E00
1E00
1E00
1E00
3F00
3F00
3700
3300
3300
3300
7380
7380
7F80
7F80
6380
6180
6180
E1C0
ENDCHAR
STARTCHAR acircumflex
ENCODING 226
SWIDTH 401 0
DWIDTH 10 0
BBX 10 22 0 0
BITMAP
1E00
1E00
3300
0000
1E00
1E00
1E00
1E00
3F00
3F00
3700
3300
3300
3300
7380
7380
7F80
7F80
6380
6180
6180
E1C0
ENDCHAR
STARTCHAR atilde
ENCODING 227
SWIDTH 401 0
DWIDTH 10 0
BBX 10 22 0 0
BITMAP
1F80
3F00
3E00
0000
1E00
1E00
1E00
1E00
3F00
3F00
3700
3300
3300
3300
7380
7380
7F80
7F80
6380
6180
6180
E1C0
ENDCHAR
STARTCHAR adieresis
ENCODING 228
SWIDTH 401 0
DWIDTH 10 0
BBX 10 22 0 0
BITMAP
3300
3300
3300
0000
1E00
1E00
1E00
1E00
3F00
3F00
3700
3300
3300
3300
7380
7380
7F80
7F80
6380
6180
6180
E1C0
ENDCHAR
STARTCHAR aring
ENCODING 229
SWIDTH 401 0
DWIDTH 10 0
BBX 10 23 0 0
BITMAP
0C00
1200
1200
1E00
0000
1E00
1E00
1E00
1E00
3F00
3F00
3700
3300
3300
3300
7380
7380
7F80
7F80
6380
6180
6180
E1C0
ENDCHAR
STARTCHAR ae
ENCODING 230
SWIDTH 580 0
DWIDTH 15 0
BBX 14 18 0 0
BITMAP
07FC
07FC
0FFC
0F80
0F80
1F80
1F80
1BF8
1BF8
3BF8
3B80
3380
3F80
7F80
7F80
73FC
63FC
E3FC
ENDCHAR
STARTCHAR ccedilla
ENCODING 231
SWIDTH 383 0
DWIDTH 10 0
BBX 8 22 1 -4
BITMAP
3C
7E
FF
E7
E7
E7
E0
E0
E0
E0
E0
E0
E7
E7
E7
E7
FE
7E
38
1C
6C
3C
ENDCHAR
STARTCHAR egrave
ENCODING 232
SWIDTH 363 0
DWIDTH 9 0
BBX 8 22 1 0
BITMAP
70
30
18
00
FF
FF
FF
E0
E0
E0
E0
FE
FE
FE
E0
E0
E0
E0
E0
FF
FF
FF
ENDCHAR
STARTCHAR eacute
ENCODING 233
SWIDTH 363 0
DWIDTH 9 0
BBX 8 22 1 0
BITMAP
0E
1C
38
00
FF
FF
FF
E0
E0
E0
E0
FE
FE
FE
E0
E0
E0
E0
E0
FF
FF
FF
ENDCHAR
STARTCHAR ecircumflex
ENCODING 234
SWIDTH 363 0
DWIDTH 9 0
BBX 8 22 1 0
BITMAP
38
7C
E6
00
FF
FF
FF
E0
E0
E0
E0
FE
FE
FE
E0
E0
E0
E0
E0
FF
FF
FF
ENDCHAR
STARTCHAR edieresis
ENCODING 235
SWIDTH 363 0
DWIDTH 9 0
BBX 8 22 1 0
BITMAP
6E
6E
6E
00
FF
FF
FF
E0
E0
E0
E0
FE
FE
FE
E0
E0
E0
E0
E0
FF
FF
FF
ENDCHAR
STARTCHAR igrave
ENCODING 236
SWIDTH 192 0
DWIDTH 5 0
BBX 5 22 -1 0
BITMAP
E0
70
38
00
38
38
38
38
38
38
38
38
38
38
38
38
38
38
38
38
38
38
ENDCHAR
STARTCHAR iacute
ENCODING 237
SWIDTH 192 0
DWIDTH 5 0
BBX 5 22 1 0
BITMAP
38
70
E0
00
E0
E0
E0
E0
E0
E0
E0
E0
E0
E0
E0
E0
E0
E0
E0
E0
E0
E0
ENDCHAR
STARTCHAR icircumflex
ENCODING 238
SWIDTH 192 0
DWIDTH 5 0
BBX 7 22 -1 0
BITMAP
38
7C
EE
00
38
38
38
38
38
38
38
38
38
38
38
38
38
38
38
38
38
38
ENDCHAR
STARTCHAR idieresis
ENCODING 239
SWIDTH 192 0
DWIDTH 5 0
BBX 7 22 -1 0
BITMAP
EE
EE
EE
00
38
38
38
38
38
38
38
38
38
38
38
38
38
38
38
38
38
38
ENDCHAR
STARTCHAR eth
ENCODING 240
SWIDTH 423 0
DWIDTH 11 0
BBX 10 18 0 0
BITMAP
7F00
7F80
7F80
71C0
71C0
71C0
71C0
FDC0
FDC0
FDC0
71C0
71C0
71C0
71C0
71C0
7F80
7F80
7F00
ENDCHAR
STARTCHAR ntilde
ENCODING 241
SWIDTH 427 0
DWIDTH 11 0
BBX 9 22 1 0
BITMAP
3F00
7E00
7E00
0000
F380
F380
F380
F380
FB80
DB80
DB80
DB80
DF80
CF80
CF80
CF80
CF80
C780
C780
C780
C780
C380
ENDCHAR
STARTCHAR ograve
ENCODING 242
SWIDTH 400 0
DWIDTH 10 0
BBX 8 22 1 0
BITMAP
70
30
1C
00
3C
7E
FF
E7
E7
E7
E7
E7
E7
E7
E7
E7
E7
E7
E7
FF
7E
3C
ENDCHAR
STARTCHAR oacute
ENCODING 243
SWIDTH 400 0
DWIDTH 10 0
BBX 8 22 1 0
BITMAP
0E
0C
18
20
3C
7E
FF
E7
E7
E7
E7
E7
E7
E7
E7
E7
E7
E7
E7
FF
7E
3C
ENDCHAR
STARTCHAR ocircumflex
ENCODING 244
SWIDTH 400 0
DWIDTH 10 0
BBX 8 22 1 0
BITMAP
3C
3C
66
00
3C
7E
FF
E7
E7
E7
E7
E7
E7
E7
E7
E7
E7
E7
E7
FF
7E
3C
ENDCHAR
STARTCHAR otilde
ENCODING 245
SWIDTH 400 0
DWIDTH 10 0
BBX 8 22 1 0
BITMAP
3E
7E
7C
00
3C
7E
FF
E7
E7
E7
E7
E7
E7
E7
E7
E7
E7
E7
E7
FF
7E
3C
ENDCHAR
STARTCHAR odieresis
ENCODING 246
SWIDTH 400 0
DWIDTH 10 0
BBX 8 22 1 0
BITMAP
66
66
66
00
3C
7E
FF
E7
E7
E7
E7
E7
E7
E7
E7
E7
E7
E7
E7
FF
7E
3C
ENDCHAR
STARTCHAR divide
ENCODING 247
SWIDTH 400 0
DWIDTH 10 0
BBX 8 11 1 4
BITMAP
18
18
18
00
FF
FF
FF
00
18
18
18
ENDCHAR
STARTCHAR oslash
ENCODING 248
SWIDTH 400 0
DWIDTH 10 0
BBX 8 18 1 0
BITMAP
3D
7F
FF
E7
E7
E7
EF
EF
FF
FF
F7
F7
E7
E7
E7
FF
FE
BC
ENDCHAR
STARTCHAR ugrave
ENCODING 249
SWIDTH 402 0
DWIDTH 10 0
BBX 8 22 1 0
BITMAP
70
30
1C
00
E7
E7
E7
E7
E7
E7
E7
E7
E7
E7
E7
E7
E7
E7
E7
FF
7E
3C
ENDCHAR
STARTCHAR uacute
ENCODING 250
SWIDTH 402 0
DWIDTH 10 0
BBX 8 22 1 0
BITMAP
0E
0C
18
00
E7
E7
E7
E7
E7
E7
E7
E7
E7
E7
E7
E7
E7
E7
E7
FF
7E
3C
ENDCHAR
STARTCHAR ucircumflex
ENCODING 251
SWIDTH 402 0
DWIDTH 10 0
BBX 8 22 1 0
BITMAP
3C
3C
66
00
E7
E7
E7
E7
E7
E7
E7
E7
E7
E7
E7
E7
E7
E7
E7
FF
7E
3C
ENDCHAR
STARTCHAR udieresis
ENCODING 252
SWIDTH 402 0
DWIDTH 10 0
BBX 8 22 1 0
BITMAP
66
66
66
00
E7
E7
E7
E7
E7
E7
E7
E7
E7
E7
E7
E7
E7
E7
E7
FF
7E
3C
ENDCHAR
STARTCHAR yacute
ENCODING 253
SWIDTH 394 0
DWIDTH 10 0
BBX 10 22 0 0
BITMAP
0700
0E00
1C00
0000
E1C0
7180
7380
7380
3300
3F00
3F00
1E00
1E00
1E00
0C00
0C00
0C00
0C00
0C00
0C00
0C00
0C00
ENDCHAR
STARTCHAR thorn
ENCODING 254
SWIDTH 386 0
DWIDTH 10 0
BBX 8 18 1 0
BITMAP
E0
E0
E0
FC
FE
FF
E7
E7
E7
E7
E7
FF
FE
F0
E0
E0
E0
E0
ENDCHAR
STARTCHAR ydieresis
ENCODING 255
SWIDTH 394 0
DWIDTH 10 0
BBX 10 22 0 0
BITMAP
3300
3300
3300
0000
E1C0
7180
7380
7380
3300
3F00
3F00
1E00
1E00
1E00
0C00
0C00
0C00
0C00
0C00
0C00
0C00
0C00
ENDCHAR
STARTCHAR Amacron
ENCODING 256
SWIDTH 401 0
DWIDTH 10 0
BBX 10 22 0 0
BITMAP
3F00
3F00
3F00
0000
1E00
1E00
1E00
1E00
3F00
3F00
3700
3300
3300
3300
7380
7380
7F80
7F80
6380
6180
6180
E1C0
ENDCHAR
STARTCHAR amacron
ENCODING 257
SWIDTH 401 0
DWIDTH 10 0
BBX 10 22 0 0
BITMAP
3F00
3F00
3F00
0000
1E00
1E00
1E00
1E00
3F00
3F00
3700
3300
3300
3300
7380
7380
7F80
7F80
6380
6180
6180
E1C0
ENDCHAR
STARTCHAR Abreve
ENCODING 258
SWIDTH 401 0
DWIDTH 10 0
BBX 10 22 0 0
BITMAP
3300
3F00
1E00
0000
1E00
1E00
1E00
1E00
3F00
3F00
3700
3300
3300
3300
7380
7380
7F80
7F80
6380
6180
6180
E1C0
ENDCHAR
STARTCHAR abreve
ENCODING 259
SWIDTH 401 0
DWIDTH 10 0
BBX 10 22 0 0
BITMAP
3300
3F00
1E00
0000
1E00
1E00
1E00
1E00
3F00
3F00
3700
3300
3300
3300
7380
7380
7F80
7F80
6380
6180
6180
E1C0
ENDCHAR
STARTCHAR Aogonek
ENCODING 260
SWIDTH 401 0
DWIDTH 10 0
BBX 10 22 0 -4
BITMAP
1E00
1E00
1E00
1E00
3F00
3F00
3700
3300
3300
3300
7380
7380
7F80
7F80
6380
6180
6180
E1C0
0100
0300
03C0
01C0
ENDCHAR
STARTCHAR aogonek
ENCODING 261
SWIDTH 401 0
DWIDTH 10 0
BBX 10 22 0 -4
BITMAP
1E00
1E00
1E00
1E00
3F00
3F00
3700
3300
3300
3300
7380
7380
7F80
7F80
6380
6180
6180
E1C0
0100
0300
03C0
01C0
ENDCHAR
STARTCHAR Cacute
ENCODING 262
SWIDTH 383 0
DWIDTH 10 0
BBX 8 22 1 0
BITMAP
0E
1C
38
00
3C
7E
FF
E7
E7
E7
E0
E0
E0
E0
E0
E7
E7
E7
E7
FF
7E
3C
ENDCHAR
STARTCHAR cacute
ENCODING 263
SWIDTH 383 0
DWIDTH 10 0
BBX 8 22 1 0
BITMAP
0E
1C
38
00
3C
7E
FF
E7
E7
E7
E0
E0
E0
E0
E0
E7
E7
E7
E7
FF
7E
3C
ENDCHAR
STARTCHAR Ccircumflex
ENCODING 264
SWIDTH 383 0
DWIDTH 10 0
BBX 8 22 1 0
BITMAP
38
7C
E6
00
3C
7E
FF
E7
E7
E7
E0
E0
E0
E0
E0
E7
E7
E7
E7
FF
7E
3C
ENDCHAR
STARTCHAR ccircumflex
ENCODING 265
SWIDTH 383 0
DWIDTH 10 0
BBX 8 22 1 0
BITMAP
38
7C
E6
00
3C
7E
FF
E7
E7
E7
E0
E0
E0
E0
E0
E7
E7
E7
E7
FF
7E
3C
ENDCHAR
STARTCHAR Cdotaccent
ENCODING 266
SWIDTH 383 0
DWIDTH 10 0
BBX 8 22 1 0
BITMAP
18
18
18
00
3C
7E
FF
E7
E7
E7
E0
E0
E0
E0
E0
E7
E7
E7
E7
FF
7E
3C
ENDCHAR
STARTCHAR cdotaccent
ENCODING 267
SWIDTH 383 0
DWIDTH 10 0
BBX 8 22 1 0
BITMAP
18
18
18
00
3C
7E
FF
E7
E7
E7
E0
E0
E0
E0
E0
E7
E7
E7
E7
FF
7E
3C
ENDCHAR
STARTCHAR Ccaron
ENCODING 268
SWIDTH 383 0
DWIDTH 10 0
BBX 8 22 1 0
BITMAP
E6
7C
38
00
3C
7E
FF
E7
E7
E7
E0
E0
E0
E0
E0
E7
E7
E7
E7
FF
7E
3C
ENDCHAR
STARTCHAR ccaron
ENCODING 269
SWIDTH 383 0
DWIDTH 10 0
BBX 8 22 1 0
BITMAP
E6
7C
38
00
3C
7E
FF
E7
E7
E7
E0
E0
E0
E0
E0
E7
E7
E7
E7
FF
7E
3C
ENDCHAR
STARTCHAR Dcaron
ENCODING 270
SWIDTH 406 0
DWIDTH 10 0
BBX 8 22 1 0
BITMAP
66
3C
3C
00
FC
FF
FF
E7
E3
E3
E3
E3
E3
E3
E3
E3
E3
E3
E7
FF
FF
FE
ENDCHAR
STARTCHAR dcaron
ENCODING 271
SWIDTH 406 0
DWIDTH 10 0
BBX 8 22 1 0
BITMAP
66
3C
3C
00
FC
FF
FF
E7
E3
E3
E3
E3
E3
E3
E3
E3
E3
E3
E7
FF
FF
FE
ENDCHAR
STARTCHAR Dcroat
ENCODING 272
SWIDTH 423 0
DWIDTH 11 0
BBX 10 18 0 0
BITMAP
7F00
7F80
7F80
71C0
71C0
71C0
71C0
FDC0
FDC0
FDC0
71C0
71C0
71C0
71C0
71C0
7F80
7F80
7F00
ENDCHAR
STARTCHAR dcroat
ENCODING 273
SWIDTH 423 0
DWIDTH 11 0
BBX 10 18 0 0
BITMAP
7F00
7F80
7F80
71C0
71C0
71C0
71C0
FDC0
FDC0
FDC0
71C0
71C0
71C0
71C0
71C0
7F80
7F80
7F00
ENDCHAR
STARTCHAR Emacron
ENCODING 274
SWIDTH 363 0
DWIDTH 9 0
BBX 8 22 1 0
BITMAP
7E
7E
7E
00
FF
FF
FF
E0
E0
E0
E0
FE
FE
FE
E0
E0
E0
E0
E0
FF
FF
FF
ENDCHAR
STARTCHAR emacron
ENCODING 275
SWIDTH 363 0
DWIDTH 9 0
BBX 8 22 1 0
BITMAP
7E
7E
7E
00
FF
FF
FF
E0
E0
E0
E0
FE
FE
FE
E0
E0
E0
E0
E0
FF
FF
FF
ENDCHAR
STARTCHAR Ebreve
ENCODING 276
SWIDTH 363 0
DWIDTH 9 0
BBX 8 22 1 0
BITMAP
66
7C
3C
00
FF
FF
FF
E0
E0
E0
E0
FE
FE
FE
E0
E0
E0
E0
E0
FF
FF
FF
ENDCHAR
STARTCHAR ebreve
ENCODING 277
SWIDTH 363 0
DWIDTH 9 0
BBX 8 22 1 0
BITMAP
66
7C
3C
00
FF
FF
FF
E0
E0
E0
E0
FE
FE
FE
E0
E0
E0
E0
E0
FF
FF
FF
ENDCHAR
STARTCHAR Edotaccent
ENCODING 278
SWIDTH 363 0
DWIDTH 9 0
BBX 8 22 1 0
BITMAP
18
18
18
00
FF
FF
FF
E0
E0
E0
E0
FE
FE
FE
E0
E0
E0
E0
E0
FF
FF
FF
ENDCHAR
STARTCHAR edotaccent
ENCODING 279
SWIDTH 363 0
DWIDTH 9 0
BBX 8 22 1 0
BITMAP
18
18
18
00
FF
FF
FF
E0
E0
E0
E0
FE
FE
FE
E0
E0
E0
E0
E0
FF
FF
FF
ENDCHAR
STARTCHAR Eogonek
ENCODING 280
SWIDTH 363 0
DWIDTH 9 0
BBX 8 22 1 -4
BITMAP
FF
FF
FF
E0
E0
E0
E0
FE
FE
FE
E0
E0
E0
E0
E0
FF
FF
FF
04
0C
0F
07
ENDCHAR
STARTCHAR eogonek
ENCODING 281
SWIDTH 363 0
DWIDTH 9 0
BBX 8 22 1 -4
BITMAP
FF
FF
FF
E0
E0
E0
E0
FE
FE
FE
E0
E0
E0
E0
E0
FF
FF
FF
04
0C
0F
07
ENDCHAR
STARTCHAR Ecaron
ENCODING 282
SWIDTH 363 0
DWIDTH 9 0
BBX 8 22 1 0
BITMAP
E6
7C
38
00
FF
FF
FF
E0
E0
E0
E0
FE
FE
FE
E0
E0
E0
E0
E0
FF
FF
FF
ENDCHAR
STARTCHAR ecaron
ENCODING 283
SWIDTH 363 0
DWIDTH 9 0
BBX 8 22 1 0
BITMAP
E6
7C
38
00
FF
FF
FF
E0
E0
E0
E0
FE
FE
FE
E0
E0
E0
E0
E0
FF
FF
FF
ENDCHAR
STARTCHAR Gcircumflex
ENCODING 284
SWIDTH 391 0
DWIDTH 10 0
BBX 8 22 1 0
BITMAP
3C
3C
66
00
3C
7E
FF
E7
E7
E7
E0
E0
EF
EF
EF
E7
E7
E7
E7
FF
7E
3C
ENDCHAR
STARTCHAR gcircumflex
ENCODING 285
SWIDTH 391 0
DWIDTH 10 0
BBX 8 22 1 0
BITMAP
3C
3C
66
00
3C
7E
FF
E7
E7
E7
E0
E0
EF
EF
EF
E7
E7
E7
E7
FF
7E
3C
ENDCHAR
STARTCHAR Gbreve
ENCODING 286
SWIDTH 391 0
DWIDTH 10 0
BBX 8 22 1 0
BITMAP
66
7E
3C
00
3C
7E
FF
E7
E7
E7
E0
E0
EF
EF
EF
E7
E7
E7
E7
FF
7E
3C
ENDCHAR
STARTCHAR gbreve
ENCODING 287
SWIDTH 391 0
DWIDTH 10 0
BBX 8 22 1 0
BITMAP
66
7E
3C
00
3C
7E
FF
E7
E7
E7
E0
E0
EF
EF
EF
E7
E7
E7
E7
FF
7E
3C
ENDCHAR
STARTCHAR Gdotaccent
ENCODING 288
SWIDTH 391 0
DWIDTH 10 0
BBX 8 22 1 0
BITMAP
18
18
18
00
3C
7E
FF
E7
E7
E7
E0
E0
EF
EF
EF
E7
E7
E7
E7
FF
7E
3C
ENDCHAR
STARTCHAR gdotaccent
ENCODING 289
SWIDTH 391 0
DWIDTH 10 0
BBX 8 22 1 0
BITMAP
18
18
18
00
3C
7E
FF
E7
E7
E7
E0
E0
EF
EF
EF
E7
E7
E7
E7
FF
7E
3C
ENDCHAR
STARTCHAR uni0122
ENCODING 290
SWIDTH 391 0
DWIDTH 10 0
BBX 8 22 1 -4
BITMAP
3C
7E
FF
E7
E7
E7
E0
E0
EF
EF
EF
E7
E7
E7
E7
FF
7E
3C
18
18
18
18
ENDCHAR
STARTCHAR uni0123
ENCODING 291
SWIDTH 391 0
DWIDTH 10 0
BBX 8 22 1 -4
BITMAP
3C
7E
FF
E7
E7
E7
E0
E0
EF
EF
EF
E7
E7
E7
E7
FF
7E
3C
18
18
18
18
ENDCHAR
STARTCHAR Hcircumflex
ENCODING 292
SWIDTH 420 0
DWIDTH 11 0
BBX 8 22 1 0
BITMAP
1C
3E
67
00
E3
E3
E3
E3
E3
E3
E3
FF
FF
FF
E3
E3
E3
E3
E3
E3
E3
E3
ENDCHAR
STARTCHAR hcircumflex
ENCODING 293
SWIDTH 420 0
DWIDTH 11 0
BBX 8 22 1 0
BITMAP
1C
3E
67
00
E3
E3
E3
E3
E3
E3
E3
FF
FF
FF
E3
E3
E3
E3
E3
E3
E3
E3
ENDCHAR
STARTCHAR Hbar
ENCODING 294
SWIDTH 438 0
DWIDTH 11 0
BBX 11 18 0 0
BITMAP
71C0
71C0
FFE0
FFE0
FFE0
71C0
71C0
7FC0
7FC0
7FC0
71C0
71C0
71C0
71C0
71C0
71C0
71C0
71C0
ENDCHAR
STARTCHAR hbar
ENCODING 295
SWIDTH 438 0
DWIDTH 11 0
BBX 11 18 0 0
BITMAP
71C0
71C0
FFE0
FFE0
FFE0
71C0
71C0
7FC0
7FC0
7FC0
71C0
71C0
71C0
71C0
71C0
71C0
71C0
71C0
ENDCHAR
STARTCHAR Itilde
ENCODING 296
SWIDTH 192 0
DWIDTH 5 0
BBX 7 22 -1 0
BITMAP
7E
FC
FC
00
38
38
38
38
38
38
38
38
38
38
38
38
38
38
38
38
38
38
ENDCHAR
STARTCHAR itilde
ENCODING 297
SWIDTH 192 0
DWIDTH 5 0
BBX 7 22 -1 0
BITMAP
7E
FC
FC
00
38
38
38
38
38
38
38
38
38
38
38
38
38
38
38
38
38
38
ENDCHAR
STARTCHAR Imacron
ENCODING 298
SWIDTH 192 0
DWIDTH 5 0
BBX 5 22 0 0
BITMAP
F8
F8
F8
00
70
70
70
70
70
70
70
70
70
70
70
70
70
70
70
70
70
70
ENDCHAR
STARTCHAR imacron
ENCODING 299
SWIDTH 192 0
DWIDTH 5 0
BBX 5 22 0 0
BITMAP
F8
F8
F8
00
70
70
70
70
70
70
70
70
70
70
70
70
70
70
70
70
70
70
ENDCHAR
STARTCHAR Ibreve
ENCODING 300
SWIDTH 192 0
DWIDTH 5 0
BBX 6 22 -1 0
BITMAP
CC
7C
38
00
38
38
38
38
38
38
38
38
38
38
38
38
38
38
38
38
38
38
ENDCHAR
STARTCHAR ibreve
ENCODING 301
SWIDTH 192 0
DWIDTH 5 0
BBX 6 22 -1 0
BITMAP
CC
7C
38
00
38
38
38
38
38
38
38
38
38
38
38
38
38
38
38
38
38
38
ENDCHAR
STARTCHAR Iogonek
ENCODING 302
SWIDTH 192 0
DWIDTH 5 0
BBX 4 22 0 -4
BITMAP
70
70
70
70
70
70
70
70
70
70
70
70
70
70
70
70
70
70
60
60
F0
70
ENDCHAR
STARTCHAR iogonek
ENCODING 303
SWIDTH 192 0
DWIDTH 5 0
BBX 4 22 0 -4
BITMAP
70
70
70
70
70
70
70
70
70
70
70
70
70
70
70
70
70
70
60
60
F0
70
ENDCHAR
STARTCHAR Idotaccent
ENCODING 304
SWIDTH 192 0
DWIDTH 5 0
BBX 3 22 1 0
BITMAP
E0
E0
E0
00
E0
E0
E0
E0
E0
E0
E0
E0
E0
E0
E0
E0
E0
E0
E0
E0
E0
E0
ENDCHAR
STARTCHAR dotlessi
ENCODING 305
SWIDTH 192 0
DWIDTH 5 0
BBX 3 18 1 0
BITMAP
E0
E0
E0
E0
E0
E0
E0
E0
E0
E0
E0
E0
E0
E0
E0
E0
E0
E0
ENDCHAR
STARTCHAR IJ
ENCODING 306
SWIDTH 457 0
DWIDTH 11 0
BBX 9 18 1 0
BITMAP
E180
E180
E180
E180
E180
E180
E180
E180
E180
E180
E180
E180
E180
E180
E180
EF80
EF80
EF00
ENDCHAR
STARTCHAR ij
ENCODING 307
SWIDTH 457 0
DWIDTH 11 0
BBX 9 18 1 0
BITMAP
E180
E180
E180
E180
E180
E180
E180
E180
E180
E180
E180
E180
E180
E180
E180
EF80
EF80
EF00
ENDCHAR
STARTCHAR Jcircumflex
ENCODING 308
SWIDTH 265 0
DWIDTH 7 0
BBX 7 22 0 0
BITMAP
3C
3C
66
00
1C
1C
1C
1C
1C
1C
1C
1C
1C
1C
1C
1C
1C
1C
1C
F8
F8
F0
ENDCHAR
STARTCHAR jcircumflex
ENCODING 309
SWIDTH 265 0
DWIDTH 7 0
BBX 7 22 0 0
BITMAP
3C
3C
66
00
1C
1C
1C
1C
1C
1C
1C
1C
1C
1C
1C
1C
1C
1C
1C
F8
F8
F0
ENDCHAR
STARTCHAR uni0136
ENCODING 310
SWIDTH 414 0
DWIDTH 10 0
BBX 9 22 1 -4
BITMAP
E380
E300
E700
E600
EE00
EC00
FC00
FC00
FC00
FE00
FE00
EE00
E600
E700
E700
E700
E380
E380
1C00
1C00
1C00
0800
ENDCHAR
STARTCHAR uni0137
ENCODING 311
SWIDTH 414 0
DWIDTH 10 0
BBX 9 22 1 -4
BITMAP
E380
E300
E700
E600
EE00
EC00
FC00
FC00
FC00
FE00
FE00
EE00
E600
E700
E700
E700
E380
E380
1C00
1C00
1C00
0800
ENDCHAR
STARTCHAR kgreenlandic
ENCODING 312
SWIDTH 414 0
DWIDTH 10 0
BBX 9 18 1 0
BITMAP
E380
E300
E700
E600
EE00
EC00
FC00
FC00
FC00
FE00
FE00
EE00
E600
E700
E700
E700
E380
E380
ENDCHAR
STARTCHAR Lacute
ENCODING 313
SWIDTH 344 0
DWIDTH 9 0
BBX 7 22 1 0
BITMAP
38
70
E0
00
E0
E0
E0
E0
E0
E0
E0
E0
E0
E0
E0
E0
E0
E0
E0
FE
FE
FE
ENDCHAR
STARTCHAR lacute
ENCODING 314
SWIDTH 344 0
DWIDTH 9 0
BBX 7 22 1 0
BITMAP
38
70
E0
00
E0
E0
E0
E0
E0
E0
E0
E0
E0
E0
E0
E0
E0
E0
E0
FE
FE
FE
ENDCHAR
STARTCHAR uni013B
ENCODING 315
SWIDTH 344 0
DWIDTH 9 0
BBX 7 22 1 -4
BITMAP
E0
E0
E0
E0
E0
E0
E0
E0
E0
E0
E0
E0
E0
E0
E0
FE
FE
FE
18
18
18
10
ENDCHAR
STARTCHAR uni013C
ENCODING 316
SWIDTH 344 0
DWIDTH 9 0
BBX 7 22 1 -4
BITMAP
E0
E0
E0
E0
E0
E0
E0
E0
E0
E0
E0
E0
E0
E0
E0
FE
FE
FE
18
18
18
10
ENDCHAR
STARTCHAR Lcaron
ENCODING 317
SWIDTH 344 0
DWIDTH 9 0
BBX 7 18 1 0
BITMAP
EE
EE
EE
E4
E4
E8
E0
E0
E0
E0
E0
E0
E0
E0
E0
FE
FE
FE
ENDCHAR
STARTCHAR lcaron
ENCODING 318
SWIDTH 344 0
DWIDTH 9 0
BBX 7 18 1 0
BITMAP
EE
EE
EE
E4
E4
E8
E0
E0
E0
E0
E0
E0
E0
E0
E0
FE
FE
FE
ENDCHAR
STARTCHAR Ldot
ENCODING 319
SWIDTH 343 0
DWIDTH 9 0
BBX 7 18 1 0
BITMAP
E0
E0
E0
E0
E0
E0
E0
E0
EE
EE
EE
E0
E0
E0
E0
FE
FE
FE
ENDCHAR
STARTCHAR ldot
ENCODING 320
SWIDTH 343 0
DWIDTH 9 0
BBX 7 18 1 0
BITMAP
E0
E0
E0
E0
E0
E0
E0
E0
EE
EE
EE
E0
E0
E0
E0
FE
FE
FE
ENDCHAR
STARTCHAR Lslash
ENCODING 321
SWIDTH 364 0
DWIDTH 9 0
BBX 9 18 0 0
BITMAP
3000
3000
3000
3000
3000
3200
3600
3600
3C00
3C00
3800
7000
F000
F000
B000
3F80
3F80
3F80
ENDCHAR
STARTCHAR lslash
ENCODING 322
SWIDTH 364 0
DWIDTH 9 0
BBX 9 18 0 0
BITMAP
3000
3000
3000
3000
3000
3200
3600
3600
3C00
3C00
3800
7000
F000
F000
B000
3F80
3F80
3F80
ENDCHAR
STARTCHAR Nacute
ENCODING 323
SWIDTH 427 0
DWIDTH 11 0
BBX 9 22 1 0
BITMAP
0700
0E00
1800
0000
F380
F380
F380
F380
FB80
DB80
DB80
DB80
DF80
CF80
CF80
CF80
CF80
C780
C780
C780
C780
C380
ENDCHAR
STARTCHAR nacute
ENCODING 324
SWIDTH 427 0
DWIDTH 11 0
BBX 9 22 1 0
BITMAP
0700
0E00
1800
0000
F380
F380
F380
F380
FB80
DB80
DB80
DB80
DF80
CF80
CF80
CF80
CF80
C780
C780
C780
C780
C380
ENDCHAR
STARTCHAR uni0145
ENCODING 325
SWIDTH 427 0
DWIDTH 11 0
BBX 9 22 1 -4
BITMAP
F380
F380
F380
F380
FB80
DB80
DB80
DB80
DF80
CF80
CF80
CF80
CF80
C780
C780
C780
C780
C380
1C00
1C00
1C00
1800
ENDCHAR
STARTCHAR uni0146
ENCODING 326
SWIDTH 427 0
DWIDTH 11 0
BBX 9 22 1 -4
BITMAP
F380
F380
F380
F380
FB80
DB80
DB80
DB80
DF80
CF80
CF80
CF80
CF80
C780
C780
C780
C780
C380
1C00
1C00
1C00
1800
ENDCHAR
STARTCHAR Ncaron
ENCODING 327
SWIDTH 427 0
DWIDTH 11 0
BBX 9 22 1 0
BITMAP
7700
3E00
1C00
0000
F380
F380
F380
F380
FB80
DB80
DB80
DB80
DF80
CF80
CF80
CF80
CF80
C780
C780
C780
C780
C380
ENDCHAR
STARTCHAR ncaron
ENCODING 328
SWIDTH 427 0
DWIDTH 11 0
BBX 9 22 1 0
BITMAP
7700
3E00
1C00
0000
F380
F380
F380
F380
FB80
DB80
DB80
DB80
DF80
CF80
CF80
CF80
CF80
C780
C780
C780
C780
C380
ENDCHAR
STARTCHAR napostrophe
ENCODING 329
SWIDTH 542 0
DWIDTH 14 0
BBX 13 18 0 0
BITMAP
EE38
EF38
EF38
4F38
4F38
8DB8
0DB8
0DB8
0DB8
0CF8
0CF8
0CF8
0CF8
0C78
0C78
0C78
0C78
0C38
ENDCHAR
STARTCHAR Eng
ENCODING 330
SWIDTH 427 0
DWIDTH 11 0
BBX 9 22 1 -4
BITMAP
F380
F380
F380
F380
FB80
DB80
DB80
DB80
CF80
CF80
CF80
CF80
C780
C780
C780
C780
C380
C380
0380
0380
0F00
0F00
ENDCHAR
STARTCHAR eng
ENCODING 331
SWIDTH 427 0
DWIDTH 11 0
BBX 9 22 1 -4
BITMAP
F380
F380
F380
F380
FB80
DB80
DB80
DB80
CF80
CF80
CF80
CF80
C780
C780
C780
C780
C380
C380
0380
0380
0F00
0F00
ENDCHAR
STARTCHAR Omacron
ENCODING 332
SWIDTH 400 0
DWIDTH 10 0
BBX 8 22 1 0
BITMAP
7E
7E
7E
00
3C
7E
FF
E7
E7
E7
E7
E7
E7
E7
E7
E7
E7
E7
E7
FF
7E
3C
ENDCHAR
STARTCHAR omacron
ENCODING 333
SWIDTH 400 0
DWIDTH 10 0
BBX 8 22 1 0
BITMAP
7E
7E
7E
00
3C
7E
FF
E7
E7
E7
E7
E7
E7
E7
E7
E7
E7
E7
E7
FF
7E
3C
ENDCHAR
STARTCHAR Obreve
ENCODING 334
SWIDTH 400 0
DWIDTH 10 0
BBX 8 22 1 0
BITMAP
66
7E
3C
00
3C
7E
FF
E7
E7
E7
E7
E7
E7
E7
E7
E7
E7
E7
E7
FF
7E
3C
ENDCHAR
STARTCHAR obreve
ENCODING 335
SWIDTH 400 0
DWIDTH 10 0
BBX 8 22 1 0
BITMAP
66
7E
3C
00
3C
7E
FF
E7
E7
E7
E7
E7
E7
E7
E7
E7
E7
E7
E7
FF
7E
3C
ENDCHAR
STARTCHAR Ohungarumlaut
ENCODING 336
SWIDTH 400 0
DWIDTH 10 0
BBX 9 22 1 0
BITMAP
3B80
3700
6E00
0000
3C00
7E00
FF00
E700
E700
E700
E700
E700
E700
E700
E700
E700
E700
E700
E700
FF00
7E00
3C00
ENDCHAR
STARTCHAR ohungarumlaut
ENCODING 337
SWIDTH 400 0
DWIDTH 10 0
BBX 9 22 1 0
BITMAP
3B80
3700
6E00
0000
3C00
7E00
FF00
E700
E700
E700
E700
E700
E700
E700
E700
E700
E700
E700
E700
FF00
7E00
3C00
ENDCHAR
STARTCHAR OE
ENCODING 338
SWIDTH 577 0
DWIDTH 14 0
BBX 13 18 1 0
BITMAP
3FF8
7FF8
FFF8
E700
E700
E700
E700
E7F0
E7F0
E7F0
E700
E700
E700
E700
E700
FFF8
7FF8
3FF8
ENDCHAR
STARTCHAR oe
ENCODING 339
SWIDTH 577 0
DWIDTH 14 0
BBX 13 18 1 0
BITMAP
3FF8
7FF8
FFF8
E700
E700
E700
E700
E7F0
E7F0
E7F0
E700
E700
E700
E700
E700
FFF8
7FF8
3FF8
ENDCHAR
STARTCHAR Racute
ENCODING 340
SWIDTH 403 0
DWIDTH 10 0
BBX 9 22 1 0
BITMAP
0E00
1C00
3800
0000
FC00
FF00
FF00
E700
E700
E700
E700
E700
FE00
FE00
FF00
E700
E700
E700
E700
E700
E700
E380
ENDCHAR
STARTCHAR racute
ENCODING 341
SWIDTH 403 0
DWIDTH 10 0
BBX 9 22 1 0
BITMAP
0E00
1C00
3800
0000
FC00
FF00
FF00
E700
E700
E700
E700
E700
FE00
FE00
FF00
E700
E700
E700
E700
E700
E700
E380
ENDCHAR
STARTCHAR uni0156
ENCODING 342
SWIDTH 403 0
DWIDTH 10 0
BBX 9 22 1 -4
BITMAP
FC00
FF00
FF00
E700
E700
E700
E700
E700
FE00
FE00
FF00
E700
E700
E700
E700
E700
E700
E300
1880
1800
1800
1800
ENDCHAR
STARTCHAR uni0157
ENCODING 343
SWIDTH 403 0
DWIDTH 10 0
BBX 9 22 1 -4
BITMAP
FC00
FF00
FF00
E700
E700
E700
E700
E700
FE00
FE00
FF00
E700
E700
E700
E700
E700
E700
E300
1880
1800
1800
1800
ENDCHAR
STARTCHAR Rcaron
ENCODING 344
SWIDTH 403 0
DWIDTH 10 0
BBX 9 22 1 0
BITMAP
E600
7C00
3800
0000
FC00
FF00
FF00
E700
E700
E700
E700
E700
FE00
FE00
FF00
E700
E700
E700
E700
E700
E700
E380
ENDCHAR
STARTCHAR rcaron
ENCODING 345
SWIDTH 403 0
DWIDTH 10 0
BBX 9 22 1 0
BITMAP
E600
7C00
3800
0000
FC00
FF00
FF00
E700
E700
E700
E700
E700
FE00
FE00
FF00
E700
E700
E700
E700
E700
E700
E380
ENDCHAR
STARTCHAR Sacute
ENCODING 346
SWIDTH 372 0
DWIDTH 9 0
BBX 8 22 1 0
BITMAP
0E
1C
38
00
3C
FE
FE
C7
C7
E0
E0
70
78
3C
1E
0E
07
C7
C7
FE
FE
7C
ENDCHAR
STARTCHAR sacute
ENCODING 347
SWIDTH 372 0
DWIDTH 9 0
BBX 8 22 1 0
BITMAP
0E
1C
38
00
3C
FE
FE
C7
C7
E0
E0
70
78
3C
1E
0E
07
C7
C7
FE
FE
7C
ENDCHAR
STARTCHAR Scircumflex
ENCODING 348
SWIDTH 372 0
DWIDTH 9 0
BBX 8 22 1 0
BITMAP
38
7C
EE
00
3C
FE
FE
C7
C7
E0
E0
70
78
3C
1E
0E
07
C7
C7
FE
FE
7C
ENDCHAR
STARTCHAR scircumflex
ENCODING 349
SWIDTH 372 0
DWIDTH 9 0
BBX 8 22 1 0
BITMAP
38
7C
EE
00
3C
FE
FE
C7
C7
E0
E0
70
78
3C
1E
0E
07
C7
C7
FE
FE
7C
ENDCHAR
STARTCHAR Scedilla
ENCODING 350
SWIDTH 372 0
DWIDTH 9 0
BBX 8 22 1 -4
BITMAP
3C
FE
FE
C7
C7
E0
E0
F0
78
3C
1E
0E
07
C7
C7
C7
FE
7C
30
1C
6C
38
ENDCHAR
STARTCHAR scedilla
ENCODING 351
SWIDTH 372 0
DWIDTH 9 0
BBX 8 22 1 -4
BITMAP
3C
FE
FE
C7
C7
E0
E0
F0
78
3C
1E
0E
07
C7
C7
C7
FE
7C
30
1C
6C
38
ENDCHAR
STARTCHAR Scaron
ENCODING 352
SWIDTH 372 0
DWIDTH 9 0
BBX 8 22 1 0
BITMAP
EE
7C
38
00
3C
FE
FE
C7
C7
E0
E0
70
78
3C
1E
0E
07
C7
C7
FE
FE
7C
ENDCHAR
STARTCHAR scaron
ENCODING 353
SWIDTH 372 0
DWIDTH 9 0
BBX 8 22 1 0
BITMAP
EE
7C
38
00
3C
FE
FE
C7
C7
E0
E0
70
78
3C
1E
0E
07
C7
C7
FE
FE
7C
ENDCHAR
STARTCHAR uni0162
ENCODING 354
SWIDTH 364 0
DWIDTH 9 0
BBX 9 22 0 -4
BITMAP
FF80
FF80
FF80
1C00
1C00
1C00
1C00
1C00
1C00
1C00
1C00
1C00
1C00
1C00
1C00
1C00
1C00
1C00
0800
0E00
3600
1C00
ENDCHAR
STARTCHAR uni0163
ENCODING 355
SWIDTH 364 0
DWIDTH 9 0
BBX 9 22 0 -4
BITMAP
FF80
FF80
FF80
1C00
1C00
1C00
1C00
1C00
1C00
1C00
1C00
1C00
1C00
1C00
1C00
1C00
1C00
1C00
0800
0E00
3600
1C00
ENDCHAR
STARTCHAR Tcaron
ENCODING 356
SWIDTH 364 0
DWIDTH 9 0
BBX 9 22 0 0
BITMAP
7700
3E00
1C00
0000
FF80
FF80
FF80
1C00
1C00
1C00
1C00
1C00
1C00
1C00
1C00
1C00
1C00
1C00
1C00
1C00
1C00
1C00
ENDCHAR
STARTCHAR tcaron
ENCODING 357
SWIDTH 364 0
DWIDTH 9 0
BBX 9 22 0 0
BITMAP
7700
3E00
1C00
0000
FF80
FF80
FF80
1C00
1C00
1C00
1C00
1C00
1C00
1C00
1C00
1C00
1C00
1C00
1C00
1C00
1C00
1C00
ENDCHAR
STARTCHAR Tbar
ENCODING 358
SWIDTH 364 0
DWIDTH 9 0
BBX 9 18 0 0
BITMAP
FF80
FF80
FF80
1C00
1C00
1C00
1C00
7F00
7F00
7F00
1C00
1C00
1C00
1C00
1C00
1C00
1C00
1C00
ENDCHAR
STARTCHAR tbar
ENCODING 359
SWIDTH 364 0
DWIDTH 9 0
BBX 9 18 0 0
BITMAP
FF80
FF80
FF80
1C00
1C00
1C00
1C00
7F00
7F00
7F00
1C00
1C00
1C00
1C00
1C00
1C00
1C00
1C00
ENDCHAR
STARTCHAR Utilde
ENCODING 360
SWIDTH 402 0
DWIDTH 10 0
BBX 8 22 1 0
BITMAP
3F
7E
7C
00
E7
E7
E7
E7
E7
E7
E7
E7
E7
E7
E7
E7
E7
E7
E7
FF
7E
3C
ENDCHAR
STARTCHAR utilde
ENCODING 361
SWIDTH 402 0
DWIDTH 10 0
BBX 8 22 1 0
BITMAP
3F
7E
7C
00
E7
E7
E7
E7
E7
E7
E7
E7
E7
E7
E7
E7
E7
E7
E7
FF
7E
3C
ENDCHAR
STARTCHAR Umacron
ENCODING 362
SWIDTH 402 0
DWIDTH 10 0
BBX 8 22 1 0
BITMAP
7E
7E
7E
00
E7
E7
E7
E7
E7
E7
E7
E7
E7
E7
E7
E7
E7
E7
E7
FF
7E
3C
ENDCHAR
STARTCHAR umacron
ENCODING 363
SWIDTH 402 0
DWIDTH 10 0
BBX 8 22 1 0
BITMAP
7E
7E
7E
00
E7
E7
E7
E7
E7
E7
E7
E7
E7
E7
E7
E7
E7
E7
E7
FF
7E
3C
ENDCHAR
STARTCHAR Ubreve
ENCODING 364
SWIDTH 402 0
DWIDTH 10 0
BBX 8 22 1 0
BITMAP
66
7E
3C
00
E7
E7
E7
E7
E7
E7
E7
E7
E7
E7
E7
E7
E7
E7
E7
FF
7E
3C
ENDCHAR
STARTCHAR ubreve
ENCODING 365
SWIDTH 402 0
DWIDTH 10 0
BBX 8 22 1 0
BITMAP
66
7E
3C
00
E7
E7
E7
E7
E7
E7
E7
E7
E7
E7
E7
E7
E7
E7
E7
FF
7E
3C
ENDCHAR
STARTCHAR Uring
ENCODING 366
SWIDTH 402 0
DWIDTH 10 0
BBX 8 23 1 0
BITMAP
18
24
24
3C
00
E7
E7
E7
E7
E7
E7
E7
E7
E7
E7
E7
E7
E7
E7
E7
FF
7E
3C
ENDCHAR
STARTCHAR uring
ENCODING 367
SWIDTH 402 0
DWIDTH 10 0
BBX 8 23 1 0
BITMAP
18
24
24
3C
00
E7
E7
E7
E7
E7
E7
E7
E7
E7
E7
E7
E7
E7
E7
E7
FF
7E
3C
ENDCHAR
STARTCHAR Uhungarumlaut
ENCODING 368
SWIDTH 402 0
DWIDTH 10 0
BBX 9 22 1 0
BITMAP
3B80
3700
6E00
0000
E700
E700
E700
E700
E700
E700
E700
E700
E700
E700
E700
E700
E700
E700
E700
FF00
7E00
3C00
ENDCHAR
STARTCHAR uhungarumlaut
ENCODING 369
SWIDTH 402 0
DWIDTH 10 0
BBX 9 22 1 0
BITMAP
3B80
3700
6E00
0000
E700
E700
E700
E700
E700
E700
E700
E700
E700
E700
E700
E700
E700
E700
E700
FF00
7E00
3C00
ENDCHAR
STARTCHAR Uogonek
ENCODING 370
SWIDTH 402 0
DWIDTH 10 0
BBX 8 22 1 -4
BITMAP
E7
E7
E7
E7
E7
E7
E7
E7
E7
E7
E7
E7
E7
E7
E7
FF
7E
3C
18
18
1C
1C
ENDCHAR
STARTCHAR uogonek
ENCODING 371
SWIDTH 402 0
DWIDTH 10 0
BBX 8 22 1 -4
BITMAP
E7
E7
E7
E7
E7
E7
E7
E7
E7
E7
E7
E7
E7
E7
E7
FF
7E
3C
18
18
1C
1C
ENDCHAR
STARTCHAR Wcircumflex
ENCODING 372
SWIDTH 557 0
DWIDTH 14 0
BBX 14 22 0 0
BITMAP
0780
0780
0CC0
0000
E39C
6798
6798
6798
6798
7798
7798
77B8
77B8
77B8
76F8
3CF0
3CF0
3CF0
3CF0
3CF0
3CF0
3CF0
ENDCHAR
STARTCHAR wcircumflex
ENCODING 373
SWIDTH 557 0
DWIDTH 14 0
BBX 14 22 0 0
BITMAP
0780
0780
0CC0
0000
E39C
6798
6798
6798
6798
7798
7798
77B8
77B8
77B8
76F8
3CF0
3CF0
3CF0
3CF0
3CF0
3CF0
3CF0
ENDCHAR
STARTCHAR Ycircumflex
ENCODING 374
SWIDTH 394 0
DWIDTH 10 0
BBX 10 22 0 0
BITMAP
1E00
1E00
3300
0000
E1C0
7180
7380
7380
3300
3F00
3F00
1E00
1E00
1E00
0C00
0C00
0C00
0C00
0C00
0C00
0C00
0C00
ENDCHAR
STARTCHAR ycircumflex
ENCODING 375
SWIDTH 394 0
DWIDTH 10 0
BBX 10 22 0 0
BITMAP
1E00
1E00
3300
0000
E1C0
7180
7380
7380
3300
3F00
3F00
1E00
1E00
1E00
0C00
0C00
0C00
0C00
0C00
0C00
0C00
0C00
ENDCHAR
STARTCHAR Ydieresis
ENCODING 376
SWIDTH 394 0
DWIDTH 10 0
BBX 10 22 0 0
BITMAP
3300
3300
3300
0000
E1C0
7180
7380
7380
3300
3F00
3F00
1E00
1E00
1E00
0C00
0C00
0C00
0C00
0C00
0C00
0C00
0C00
ENDCHAR
STARTCHAR Zacute
ENCODING 377
SWIDTH 362 0
DWIDTH 9 0
BBX 9 22 0 0
BITMAP
0700
0E00
1C00
0000
7F80
7F80
7F80
0700
0700
0E00
0E00
0E00
1C00
1C00
3800
3800
3800
7000
7000
FF80
FF80
FF80
ENDCHAR
STARTCHAR zacute
ENCODING 378
SWIDTH 362 0
DWIDTH 9 0
BBX 9 22 0 0
BITMAP
0700
0E00
1C00
0000
7F80
7F80
7F80
0700
0700
0E00
0E00
0E00
1C00
1C00
3800
3800
3800
7000
7000
FF80
FF80
FF80
ENDCHAR
STARTCHAR Zdotaccent
ENCODING 379
SWIDTH 362 0
DWIDTH 9 0
BBX 9 22 0 0
BITMAP
1C00
1C00
1C00
0000
7F80
7F80
7F80
0700
0700
0E00
0E00
0E00
1C00
1C00
3800
3800
3800
7000
7000
FF80
FF80
FF80
ENDCHAR
STARTCHAR zdotaccent
ENCODING 380
SWIDTH 362 0
DWIDTH 9 0
BBX 9 22 0 0
BITMAP
1C00
1C00
1C00
0000
7F80
7F80
7F80
0700
0700
0E00
0E00
0E00
1C00
1C00
3800
3800
3800
7000
7000
FF80
FF80
FF80
ENDCHAR
STARTCHAR Zcaron
ENCODING 381
SWIDTH 362 0
DWIDTH 9 0
BBX 9 22 0 0
BITMAP
7700
3E00
1C00
0000
7F80
7F80
7F80
0700
0700
0E00
0E00
0E00
1C00
1C00
3800
3800
3800
7000
7000
FF80
FF80
FF80
ENDCHAR
STARTCHAR zcaron
ENCODING 382
SWIDTH 362 0
DWIDTH 9 0
BBX 9 22 0 0
BITMAP
7700
3E00
1C00
0000
7F80
7F80
7F80
0700
0700
0E00
0E00
0E00
1C00
1C00
3800
3800
3800
7000
7000
FF80
FF80
FF80
ENDCHAR
STARTCHAR florin
ENCODING 402
SWIDTH 400 0
DWIDTH 10 0
BBX 9 20 0 -1
BITMAP
3600
FE00
FF00
FF80
7380
7380
7380
7380
7F80
7E00
7F80
7380
7180
7180
7180
FF80
FF80
FF00
3600
3600
ENDCHAR
STARTCHAR AEacute
ENCODING 508
SWIDTH 580 0
DWIDTH 15 0
BBX 14 22 0 0
BITMAP
01C0
0180
0300
0000
07FC
07FC
0FFC
0F80
0F80
1F80
1F80
1BF8
1BF8
3BF8
3B80
3380
3F80
7F80
7F80
73FC
63FC
E3FC
ENDCHAR
STARTCHAR aeacute
ENCODING 509
SWIDTH 580 0
DWIDTH 15 0
BBX 14 22 0 0
BITMAP
01C0
0180
0300
0000
07FC
07FC
0FFC
0F80
0F80
1F80
1F80
1BF8
1BF8
3BF8
3B80
3380
3F80
7F80
7F80
73FC
63FC
E3FC
ENDCHAR
STARTCHAR Oslashacute
ENCODING 510
SWIDTH 400 0
DWIDTH 10 0
BBX 8 22 1 0
BITMAP
0E
0C
18
20
3D
7F
FF
E7
E7
E7
EF
EF
FF
FF
F7
F7
E7
E7
E7
FF
FE
BC
ENDCHAR
STARTCHAR oslashacute
ENCODING 511
SWIDTH 400 0
DWIDTH 10 0
BBX 8 22 1 0
BITMAP
0E
0C
18
20
3D
7F
FF
E7
E7
E7
EF
EF
FF
FF
F7
F7
E7
E7
E7
FF
FE
BC
ENDCHAR
STARTCHAR uni0218
ENCODING 536
SWIDTH 372 0
DWIDTH 9 0
BBX 8 22 1 -4
BITMAP
3C
FE
FE
C7
C7
E0
E0
70
78
3C
1E
0E
07
C7
C7
FE
FE
7C
38
38
38
10
ENDCHAR
STARTCHAR uni0219
ENCODING 537
SWIDTH 372 0
DWIDTH 9 0
BBX 8 22 1 -4
BITMAP
3C
FE
FE
C7
C7
E0
E0
70
78
3C
1E
0E
07
C7
C7
FE
FE
7C
38
38
38
10
ENDCHAR
STARTCHAR uni021A
ENCODING 538
SWIDTH 364 0
DWIDTH 9 0
BBX 9 22 0 -4
BITMAP
FF80
FF80
FF80
1C00
1C00
1C00
1C00
1C00
1C00
1C00
1C00
1C00
1C00
1C00
1C00
1C00
1C00
1C00
1C00
1C00
1C00
0800
ENDCHAR
STARTCHAR uni021B
ENCODING 539
SWIDTH 364 0
DWIDTH 9 0
BBX 9 22 0 -4
BITMAP
FF80
FF80
FF80
1C00
1C00
1C00
1C00
1C00
1C00
1C00
1C00
1C00
1C00
1C00
1C00
1C00
1C00
1C00
1C00
1C00
1C00
0800
ENDCHAR
STARTCHAR uni0237
ENCODING 567
SWIDTH 265 0
DWIDTH 7 0
BBX 6 18 0 0
BITMAP
1C
1C
1C
1C
1C
1C
1C
1C
1C
1C
1C
1C
1C
1C
1C
F8
F8
F0
ENDCHAR
STARTCHAR uni02BC
ENCODING 700
SWIDTH 0 0
DWIDTH 0 0
BBX 2 5 -1 13
BITMAP
C0
C0
C0
40
C0
ENDCHAR
STARTCHAR circumflex
ENCODING 710
SWIDTH 500 0
DWIDTH 13 0
BBX 7 3 3 19
BITMAP
38
7C
CE
ENDCHAR
STARTCHAR caron
ENCODING 711
SWIDTH 500 0
DWIDTH 13 0
BBX 7 3 3 19
BITMAP
CE
7C
38
ENDCHAR
STARTCHAR uni02C9
ENCODING 713
SWIDTH 500 0
DWIDTH 13 0
BBX 6 3 3 19
BITMAP
FC
FC
FC
ENDCHAR
STARTCHAR breve
ENCODING 728
SWIDTH 500 0
DWIDTH 13 0
BBX 6 3 3 19
BITMAP
CC
7C
78
ENDCHAR
STARTCHAR dotaccent
ENCODING 729
SWIDTH 500 0
DWIDTH 13 0
BBX 3 3 5 19
BITMAP
E0
E0
E0
ENDCHAR
STARTCHAR ring
ENCODING 730
SWIDTH 500 0
DWIDTH 13 0
BBX 4 4 4 19
BITMAP
70
D0
D0
70
ENDCHAR
STARTCHAR ogonek
ENCODING 731
SWIDTH 500 0
DWIDTH 13 0
BBX 4 4 4 -4
BITMAP
60
C0
F0
70
ENDCHAR
STARTCHAR tilde
ENCODING 732
SWIDTH 500 0
DWIDTH 13 0
BBX 7 3 3 19
BITMAP
7E
FC
FC
ENDCHAR
STARTCHAR hungarumlaut
ENCODING 733
SWIDTH 500 0
DWIDTH 13 0
BBX 8 3 3 19
BITMAP
3F
66
CC
ENDCHAR
STARTCHAR gravecomb
ENCODING 768
SWIDTH 0 0
DWIDTH 0 0
BBX 5 3 -3 19
BITMAP
E0
60
38
ENDCHAR
STARTCHAR acutecomb
ENCODING 769
SWIDTH 0 0
DWIDTH 0 0
BBX 5 3 -2 19
BITMAP
38
30
E0
ENDCHAR
STARTCHAR uni0302
ENCODING 770
SWIDTH 0 0
DWIDTH 0 0
BBX 6 3 -3 19
BITMAP
78
78
CC
ENDCHAR
STARTCHAR tildecomb
ENCODING 771
SWIDTH 0 0
DWIDTH 0 0
BBX 6 3 -3 19
BITMAP
7C
FC
F8
ENDCHAR
STARTCHAR uni0304
ENCODING 772
SWIDTH 0 0
DWIDTH 0 0
BBX 6 3 -3 19
BITMAP
FC
FC
FC
ENDCHAR
STARTCHAR uni0306
ENCODING 774
SWIDTH 0 0
DWIDTH 0 0
BBX 6 3 -3 19
BITMAP
CC
FC
78
ENDCHAR
STARTCHAR uni0307
ENCODING 775
SWIDTH 0 0
DWIDTH 0 0
BBX 2 3 -1 19
BITMAP
C0
C0
C0
ENDCHAR
STARTCHAR uni0308
ENCODING 776
SWIDTH 0 0
DWIDTH 0 0
BBX 6 3 -3 19
BITMAP
CC
CC
CC
ENDCHAR
STARTCHAR uni030A
ENCODING 778
SWIDTH 0 0
DWIDTH 0 0
BBX 4 4 -2 19
BITMAP
60
90
90
F0
ENDCHAR
STARTCHAR uni030B
ENCODING 779
SWIDTH 0 0
DWIDTH 0 0
BBX 8 3 -3 19
BITMAP
77
6E
DC
ENDCHAR
STARTCHAR uni030C
ENCODING 780
SWIDTH 0 0
DWIDTH 0 0
BBX 6 3 -3 19
BITMAP
CC
78
78
ENDCHAR
STARTCHAR uni0312
ENCODING 786
SWIDTH 0 0
DWIDTH 0 0
BBX 2 4 -1 19
BITMAP
40
80
C0
C0
ENDCHAR
STARTCHAR uni0326
ENCODING 806
SWIDTH 0 0
DWIDTH 0 0
BBX 2 4 -1 -4
BITMAP
C0
C0
C0
C0
ENDCHAR
STARTCHAR uni0327
ENCODING 807
SWIDTH 0 0
DWIDTH 0 0
BBX 5 4 -3 -4
BITMAP
30
38
D8
78
ENDCHAR
STARTCHAR uni0328
ENCODING 808
SWIDTH 0 0
DWIDTH 0 0
BBX 4 4 -2 -4
BITMAP
60
C0
F0
70
ENDCHAR
STARTCHAR uni0335
ENCODING 821
SWIDTH 0 0
DWIDTH 0 0
BBX 6 3 -3 8
BITMAP
FC
FC
FC
ENDCHAR
STARTCHAR uni0336
ENCODING 822
SWIDTH 0 0
DWIDTH 0 0
BBX 10 3 -5 8
BITMAP
FFC0
FFC0
FFC0
ENDCHAR
STARTCHAR uni0337
ENCODING 823
SWIDTH 0 0
DWIDTH 0 0
BBX 8 19 -4 -1
BITMAP
01
03
02
06
06
04
0C
08
08
18
10
30
20
20
60
40
C0
C0
80
ENDCHAR
STARTCHAR uni0338
ENCODING 824
SWIDTH 0 0
DWIDTH 0 0
BBX 8 19 -4 -1
BITMAP
01
03
03
06
06
04
0C
0C
18
18
10
30
30
60
60
40
C0
C0
80
ENDCHAR
STARTCHAR uni0394
ENCODING 916
SWIDTH 401 0
DWIDTH 10 0
BBX 10 18 0 0
BITMAP
1E00
1E00
1E00
1E00
3F00
3F00
3700
3700
3300
3300
7380
7380
7380
6380
6380
7F80
7F80
FFC0
ENDCHAR
STARTCHAR uni03A9
ENCODING 937
SWIDTH 402 0
DWIDTH 10 0
BBX 8 18 1 0
BITMAP
3C
7E
FF
E7
E7
E7
E7
E7
E7
E7
E7
E7
E7
67
66
FF
FF
FF
ENDCHAR
STARTCHAR uni03BC
ENCODING 956
SWIDTH 405 0
DWIDTH 10 0
BBX 8 17 1 -4
BITMAP
E3
E3
E3
E3
E3
E3
E3
E3
E3
E7
FF
FF
FB
E0
E0
E0
E0
ENDCHAR
STARTCHAR pi
ENCODING 960
SWIDTH 452 0
DWIDTH 11 0
BBX 11 13 0 0
BITMAP
FFE0
FFE0
FFE0
3980
3980
3980
3980
3980
3980
3980
3980
3980
3980
ENDCHAR
STARTCHAR uni1E02
ENCODING 7682
SWIDTH 404 0
DWIDTH 10 0
BBX 9 22 1 0
BITMAP
1800
1800
1800
0000
FE00
FF00
FF00
E700
E700
E700
E700
FF00
FE00
FF00
E700
E300
E380
E380
E300
FF00
FF00
FE00
ENDCHAR
STARTCHAR uni1E03
ENCODING 7683
SWIDTH 404 0
DWIDTH 10 0
BBX 9 22 1 0
BITMAP
1800
1800
1800
0000
FE00
FF00
FF00
E700
E700
E700
E700
FF00
FE00
FF00
E700
E300
E380
E380
E300
FF00
FF00
FE00
ENDCHAR
STARTCHAR uni1E0A
ENCODING 7690
SWIDTH 406 0
DWIDTH 10 0
BBX 8 22 1 0
BITMAP
18
18
18
00
FC
FF
FF
E7
E3
E3
E3
E3
E3
E3
E3
E3
E3
E3
E7
FF
FF
FE
ENDCHAR
STARTCHAR uni1E0B
ENCODING 7691
SWIDTH 406 0
DWIDTH 10 0
BBX 8 22 1 0
BITMAP
18
18
18
00
FC
FF
FF
E7
E3
E3
E3
E3
E3
E3
E3
E3
E3
E3
E7
FF
FF
FE
ENDCHAR
STARTCHAR uni1E1E
ENCODING 7710
SWIDTH 344 0
DWIDTH 9 0
BBX 7 22 1 0
BITMAP
38
38
38
00
FE
FE
FE
E0
E0
E0
E0
E0
FC
FC
FC
E0
E0
E0
E0
E0
E0
E0
ENDCHAR
STARTCHAR uni1E1F
ENCODING 7711
SWIDTH 344 0
DWIDTH 9 0
BBX 7 22 1 0
BITMAP
38
38
38
00
FE
FE
FE
E0
E0
E0
E0
E0
FC
FC
FC
E0
E0
E0
E0
E0
E0
E0
ENDCHAR
STARTCHAR uni1E40
ENCODING 7744
SWIDTH 538 0
DWIDTH 13 0
BBX 11 22 1 0
BITMAP
0E00
0E00
0E00
0000
F1E0
F1E0
F1E0
F1E0
F9E0
D9E0
D9E0
DB60
DB60
DB60
DB60
DB60
CF60
CE60
CE60
CE60
CE60
CE60
ENDCHAR
STARTCHAR uni1E41
ENCODING 7745
SWIDTH 538 0
DWIDTH 13 0
BBX 11 22 1 0
BITMAP
0E00
0E00
0E00
0000
F1E0
F1E0
F1E0
F1E0
F9E0
D9E0
D9E0
DB60
DB60
DB60
DB60
DB60
CF60
CE60
CE60
CE60
CE60
CE60
ENDCHAR
STARTCHAR uni1E56
ENCODING 7766
SWIDTH 386 0
DWIDTH 10 0
BBX 8 22 1 0
BITMAP
18
18
18
00
FC
FE
FF
E7
E7
E7
E7
E7
FF
FE
FC
E0
E0
E0
E0
E0
E0
E0
ENDCHAR
STARTCHAR uni1E57
ENCODING 7767
SWIDTH 386 0
DWIDTH 10 0
BBX 8 22 1 0
BITMAP
18
18
18
00
FC
FE
FF
E7
E7
E7
E7
E7
FF
FE
FC
E0
E0
E0
E0
E0
E0
E0
ENDCHAR
STARTCHAR uni1E60
ENCODING 7776
SWIDTH 372 0
DWIDTH 9 0
BBX 8 22 1 0
BITMAP
38
38
38
00
3C
FE
FE
C7
C7
E0
E0
70
78
3C
1E
0E
07
C7
C7
FE
FE
7C
ENDCHAR
STARTCHAR uni1E61
ENCODING 7777
SWIDTH 372 0
DWIDTH 9 0
BBX 8 22 1 0
BITMAP
38
38
38
00
3C
FE
FE
C7
C7
E0
E0
70
78
3C
1E
0E
07
C7
C7
FE
FE
7C
ENDCHAR
STARTCHAR uni1E6A
ENCODING 7786
SWIDTH 364 0
DWIDTH 9 0
BBX 9 22 0 0
BITMAP
1C00
1C00
1C00
0000
FF80
FF80
FF80
1C00
1C00
1C00
1C00
1C00
1C00
1C00
1C00
1C00
1C00
1C00
1C00
1C00
1C00
1C00
ENDCHAR
STARTCHAR uni1E6B
ENCODING 7787
SWIDTH 364 0
DWIDTH 9 0
BBX 9 22 0 0
BITMAP
1C00
1C00
1C00
0000
FF80
FF80
FF80
1C00
1C00
1C00
1C00
1C00
1C00
1C00
1C00
1C00
1C00
1C00
1C00
1C00
1C00
1C00
ENDCHAR
STARTCHAR Wgrave
ENCODING 7808
SWIDTH 557 0
DWIDTH 14 0
BBX 14 22 0 0
BITMAP
0E00
0600
0300
0000
E39C
6798
6798
6798
6798
7798
7798
77B8
77B8
77B8
76F8
3CF0
3CF0
3CF0
3CF0
3CF0
3CF0
3CF0
ENDCHAR
STARTCHAR wgrave
ENCODING 7809
SWIDTH 557 0
DWIDTH 14 0
BBX 14 22 0 0
BITMAP
0E00
0600
0300
0000
E39C
6798
6798
6798
6798
7798
7798
77B8
77B8
77B8
76F8
3CF0
3CF0
3CF0
3CF0
3CF0
3CF0
3CF0
ENDCHAR
STARTCHAR Wacute
ENCODING 7810
SWIDTH 557 0
DWIDTH 14 0
BBX 14 22 0 0
BITMAP
01C0
0380
0700
0000
E39C
6798
6798
6798
6798
7798
7798
77B8
77B8
77B8
76F8
3CF0
3CF0
3CF0
3CF0
3CF0
3CF0
3CF0
ENDCHAR
STARTCHAR wacute
ENCODING 7811
SWIDTH 557 0
DWIDTH 14 0
BBX 14 22 0 0
BITMAP
01C0
0380
0700
0000
E39C
6798
6798
6798
6798
7798
7798
77B8
77B8
77B8
76F8
3CF0
3CF0
3CF0
3CF0
3CF0
3CF0
3CF0
ENDCHAR
STARTCHAR Wdieresis
ENCODING 7812
SWIDTH 557 0
DWIDTH 14 0
BBX 14 22 0 0
BITMAP
0CC0
0CC0
0CC0
0000
E39C
6798
6798
6798
6798
7798
7798
77B8
77B8
77B8
76F8
3CF0
3CF0
3CF0
3CF0
3CF0
3CF0
3CF0
ENDCHAR
STARTCHAR wdieresis
ENCODING 7813
SWIDTH 557 0
DWIDTH 14 0
BBX 14 22 0 0
BITMAP
0CC0
0CC0
0CC0
0000
E39C
6798
6798
6798
6798
7798
7798
77B8
77B8
77B8
76F8
3CF0
3CF0
3CF0
3CF0
3CF0
3CF0
3CF0
ENDCHAR
STARTCHAR uni1E9E
ENCODING 7838
SWIDTH 407 0
DWIDTH 10 0
BBX 9 18 1 0
BITMAP
FF00
FF00
FF00
E700
E700
E600
EE00
EE00
EF00
EF00
E380
E380
E380
E380
E380
EF00
EF00
EE00
ENDCHAR
STARTCHAR Ygrave
ENCODING 7922
SWIDTH 394 0
DWIDTH 10 0
BBX 10 22 0 0
BITMAP
3800
1800
0C00
0000
E1C0
7180
7380
7380
3300
3F00
3F00
1E00
1E00
1E00
0C00
0C00
0C00
0C00
0C00
0C00
0C00
0C00
ENDCHAR
STARTCHAR ygrave
ENCODING 7923
SWIDTH 394 0
DWIDTH 10 0
BBX 10 22 0 0
BITMAP
3800
1800
0C00
0000
E1C0
7180
7380
7380
3300
3F00
3F00
1E00
1E00
1E00
0C00
0C00
0C00
0C00
0C00
0C00
0C00
0C00
ENDCHAR
STARTCHAR uni2002
ENCODING 8194
SWIDTH 300 0
DWIDTH 8 0
BBX 1 1 0 0
BITMAP
00
ENDCHAR
STARTCHAR uni2003
ENCODING 8195
SWIDTH 500 0
DWIDTH 13 0
BBX 1 1 0 0
BITMAP
00
ENDCHAR
STARTCHAR uni2007
ENCODING 8199
SWIDTH 400 0
DWIDTH 10 0
BBX 1 1 0 0
BITMAP
00
ENDCHAR
STARTCHAR uni2008
ENCODING 8200
SWIDTH 188 0
DWIDTH 5 0
BBX 1 1 0 0
BITMAP
00
ENDCHAR
STARTCHAR uni200B
ENCODING 8203
SWIDTH 0 0
DWIDTH 0 0
BBX 1 1 0 0
BITMAP
00
ENDCHAR
STARTCHAR figuredash
ENCODING 8210
SWIDTH 400 0
DWIDTH 10 0
BBX 10 3 0 8
BITMAP
FFC0
FFC0
FFC0
ENDCHAR
STARTCHAR endash
ENCODING 8211
SWIDTH 300 0
DWIDTH 8 0
BBX 8 3 0 8
BITMAP
FF
FF
FF
ENDCHAR
STARTCHAR emdash
ENCODING 8212
SWIDTH 500 0
DWIDTH 13 0
BBX 13 3 0 8
BITMAP
FFF8
FFF8
FFF8
ENDCHAR
STARTCHAR quoteleft
ENCODING 8216
SWIDTH 188 0
DWIDTH 5 0
BBX 3 6 1 12
BITMAP
60
40
C0
E0
E0
E0
ENDCHAR
STARTCHAR quoteright
ENCODING 8217
SWIDTH 188 0
DWIDTH 5 0
BBX 3 6 1 12
BITMAP
E0
E0
E0
40
C0
80
ENDCHAR
STARTCHAR quotesinglbase
ENCODING 8218
SWIDTH 188 0
DWIDTH 5 0
BBX 3 6 1 -3
BITMAP
E0
E0
E0
40
C0
C0
ENDCHAR
STARTCHAR quotedblleft
ENCODING 8220
SWIDTH 336 0
DWIDTH 8 0
BBX 7 6 1 12
BITMAP
66
44
CC
EC
EC
EC
ENDCHAR
STARTCHAR quotedblright
ENCODING 8221
SWIDTH 336 0
DWIDTH 8 0
BBX 6 6 1 12
BITMAP
EC
EC
EC
4C
C8
88
ENDCHAR
STARTCHAR quotedblbase
ENCODING 8222
SWIDTH 336 0
DWIDTH 8 0
BBX 6 6 1 -3
BITMAP
EC
EC
EC
4C
CC
88
ENDCHAR
STARTCHAR dagger
ENCODING 8224
SWIDTH 400 0
DWIDTH 10 0
BBX 8 20 1 -2
BITMAP
18
18
18
18
FF
FF
FF
18
18
18
18
18
18
18
18
18
18
18
18
18
ENDCHAR
STARTCHAR daggerdbl
ENCODING 8225
SWIDTH 400 0
DWIDTH 10 0
BBX 8 20 1 -2
BITMAP
18
18
18
18
FF
FF
FF
18
18
18
18
18
18
FF
FF
FF
18
18
18
18
ENDCHAR
STARTCHAR bullet
ENCODING 8226
SWIDTH 300 0
DWIDTH 8 0
BBX 6 6 1 6
BITMAP
70
F8
FC
FC
F8
70
ENDCHAR
STARTCHAR ellipsis
ENCODING 8230
SWIDTH 500 0
DWIDTH 13 0
BBX 11 3 1 0
BITMAP
CEE0
CEE0
CEE0
ENDCHAR
STARTCHAR perthousand
ENCODING 8240
SWIDTH 845 0
DWIDTH 21 0
BBX 19 18 1 0
BITMAP
706000
D8C000
D8C000
D88000
D98000
D98000
DB0000
DB0000
DA6080
269360
069B60
049B60
0C9B60
0C9B60
189B60
189B60
10FBE0
30F1C0
ENDCHAR
STARTCHAR guilsinglleft
ENCODING 8249
SWIDTH 188 0
DWIDTH 5 0
BBX 4 6 0 6
BITMAP
30
70
E0
60
70
30
ENDCHAR
STARTCHAR guilsinglright
ENCODING 8250
SWIDTH 188 0
DWIDTH 5 0
BBX 4 6 0 6
BITMAP
E0
60
30
30
60
E0
ENDCHAR
STARTCHAR fraction
ENCODING 8260
SWIDTH 89 0
DWIDTH 2 0
BBX 8 18 -3 0
BITMAP
03
03
02
06
06
04
0C
0C
18
18
10
30
30
20
60
60
C0
C0
ENDCHAR
STARTCHAR uni2070
ENCODING 8304
SWIDTH 282 0
DWIDTH 7 0
BBX 5 11 1 9
BITMAP
70
F8
D8
D8
D8
D8
D8
D8
D8
F8
70
ENDCHAR
STARTCHAR uni2074
ENCODING 8308
SWIDTH 282 0
DWIDTH 7 0
BBX 5 11 1 9
BITMAP
18
38
38
78
58
D8
D8
F8
F8
18
18
ENDCHAR
STARTCHAR uni2075
ENCODING 8309
SWIDTH 282 0
DWIDTH 7 0
BBX 5 11 1 9
BITMAP
F8
F8
C0
F8
F8
D8
18
18
D8
F8
70
ENDCHAR
STARTCHAR uni2076
ENCODING 8310
SWIDTH 282 0
DWIDTH 7 0
BBX 5 11 1 9
BITMAP
70
F8
C8
D0
F8
D8
D8
D8
D8
F8
70
ENDCHAR
STARTCHAR uni2077
ENCODING 8311
SWIDTH 282 0
DWIDTH 7 0
BBX 5 11 1 9
BITMAP
F8
F8
18
18
10
30
30
20
60
60
60
ENDCHAR
STARTCHAR uni2078
ENCODING 8312
SWIDTH 282 0
DWIDTH 7 0
BBX 5 11 1 9
BITMAP
70
F8
D8
D8
F8
F8
D8
D8
D8
F8
70
ENDCHAR
STARTCHAR uni2079
ENCODING 8313
SWIDTH 282 0
DWIDTH 7 0
BBX 5 11 1 9
BITMAP
70
F8
D8
D8
D8
F8
58
18
D8
F8
70
ENDCHAR
STARTCHAR uni2080
ENCODING 8320
SWIDTH 282 0
DWIDTH 7 0
BBX 5 11 1 -2
BITMAP
70
F8
D8
D8
D8
D8
D8
D8
D8
F8
70
ENDCHAR
STARTCHAR uni2081
ENCODING 8321
SWIDTH 282 0
DWIDTH 7 0
BBX 4 11 1 -2
BITMAP
30
F0
F0
30
30
30
30
30
30
30
30
ENDCHAR
STARTCHAR uni2082
ENCODING 8322
SWIDTH 282 0
DWIDTH 7 0
BBX 5 11 1 -2
BITMAP
70
F8
D8
D8
18
30
60
C0
C0
F8
F8
ENDCHAR
STARTCHAR uni2083
ENCODING 8323
SWIDTH 282 0
DWIDTH 7 0
BBX 5 11 1 -2
BITMAP
70
F8
D8
18
30
38
18
D8
D8
F8
70
ENDCHAR
STARTCHAR uni2084
ENCODING 8324
SWIDTH 282 0
DWIDTH 7 0
BBX 5 11 1 -2
BITMAP
18
38
38
78
58
D8
D8
F8
F8
18
18
ENDCHAR
STARTCHAR uni2085
ENCODING 8325
SWIDTH 282 0
DWIDTH 7 0
BBX 5 11 1 -2
BITMAP
F8
F8
C0
F8
F8
D8
18
18
D8
F8
70
ENDCHAR
STARTCHAR uni2086
ENCODING 8326
SWIDTH 282 0
DWIDTH 7 0
BBX 5 11 1 -2
BITMAP
70
F8
C8
C0
F8
F8
D8
D8
D8
F8
70
ENDCHAR
STARTCHAR uni2087
ENCODING 8327
SWIDTH 282 0
DWIDTH 7 0
BBX 5 11 1 -2
BITMAP
F8
F8
18
18
10
30
30
20
60
60
60
ENDCHAR
STARTCHAR uni2088
ENCODING 8328
SWIDTH 282 0
DWIDTH 7 0
BBX 5 11 1 -2
BITMAP
70
F8
D8
D8
F8
F8
D8
D8
D8
F8
70
ENDCHAR
STARTCHAR uni2089
ENCODING 8329
SWIDTH 282 0
DWIDTH 7 0
BBX 5 11 1 -2
BITMAP
70
F8
D8
D8
D8
F8
58
18
D8
F8
70
ENDCHAR
STARTCHAR Euro
ENCODING 8364
SWIDTH 400 0
DWIDTH 10 0
BBX 8 18 1 0
BITMAP
3C
7F
7F
E3
E3
E0
E0
FE
E0
FE
E0
E0
E3
E3
E3
7F
7F
3C
ENDCHAR
STARTCHAR uni20B9
ENCODING 8377
SWIDTH 400 0
DWIDTH 10 0
BBX 8 18 1 0
BITMAP
FF
FF
1C
0E
FF
FF
0E
1C
FC
F8
E0
70
78
38
1C
1E
0E
07
ENDCHAR
STARTCHAR uni20BF
ENCODING 8383
SWIDTH 400 0
DWIDTH 10 0
BBX 9 20 0 -1
BITMAP
3600
FE00
FF00
FF80
7380
7380
7380
7380
7F80
7E00
7F80
7380
7180
7180
7180
FF80
FF80
FF00
3600
3600
ENDCHAR
STARTCHAR uni2113
ENCODING 8467
SWIDTH 412 0
DWIDTH 10 0
BBX 10 18 0 0
BITMAP
0F00
1F80
3FC0
39C0
39C0
39C0
3980
3B80
3F00
3F00
3C00
7800
F800
79C0
39C0
3FC0
1F80
0F00
ENDCHAR
STARTCHAR uni2116
ENCODING 8470
SWIDTH 661 0
DWIDTH 17 0
BBX 15 18 1 0
BITMAP
F300
F300
F300
F300
F300
F300
DB3C
DB3C
DB66
DB66
CB66
CF66
CF66
CF3C
CF3C
C700
C77E
C77E
ENDCHAR
STARTCHAR uni2117
ENCODING 8471
SWIDTH 738 0
DWIDTH 18 0
BBX 17 18 1 0
BITMAP
07E000
1FF800
381C00
700600
63E300
C3E300
C33180
833180
833180
83E180
83C180
C30180
C30300
630300
730600
381C00
1FF800
07E000
ENDCHAR
STARTCHAR uni2120
ENCODING 8480
SWIDTH 599 0
DWIDTH 15 0
BBX 13 9 1 9
BITMAP
F338
DBB8
83B8
C2B8
F2B8
32F8
9AF8
9AD8
F258
ENDCHAR
STARTCHAR trademark
ENCODING 8482
SWIDTH 598 0
DWIDTH 15 0
BBX 14 9 0 9
BITMAP
FD9C
FDDC
31DC
31DC
315C
315C
317C
316C
316C
ENDCHAR
STARTCHAR uni2126
ENCODING 8486
SWIDTH 402 0
DWIDTH 10 0
BBX 8 18 1 0
BITMAP
3C
7E
FF
E7
E7
E7
E7
E7
E7
E7
E7
E7
E7
67
66
FF
FF
FF
ENDCHAR
STARTCHAR estimated
ENCODING 8494
SWIDTH 821 0
DWIDTH 21 0
BBX 19 18 1 0
BITMAP
03F000
0E0E00
180300
200180
6001C0
6001C0
E001E0
E001E0
FFFFE0
E00000
E00000
E00000
600000
600000
300180
180300
0E0C00
03F000
ENDCHAR
STARTCHAR uni2153
ENCODING 8531
SWIDTH 653 0
DWIDTH 16 0
BBX 14 18 1 0
BITMAP
3060
F060
3040
30C0
30C0
3080
3198
31FC
336C
3364
320C
061C
061C
0404
0C64
0C64
187C
1838
ENDCHAR
STARTCHAR uni2154
ENCODING 8532
SWIDTH 653 0
DWIDTH 16 0
BBX 14 18 1 0
BITMAP
7060
F860
D840
D8C0
18C0
1080
3198
61FC
C36C
C364
FA0C
FE1C
061C
0404
0C64
0C64
187C
1838
ENDCHAR
STARTCHAR oneeighth
ENCODING 8539
SWIDTH 653 0
DWIDTH 16 0
BBX 15 18 1 0
BITMAP
3060
F060
3040
30C0
30C0
3080
31B8
31FC
3364
3366
3264
063C
063C
0464
0C66
0C66
187C
183C
ENDCHAR
STARTCHAR threeeighths
ENCODING 8540
SWIDTH 653 0
DWIDTH 16 0
BBX 15 18 1 0
BITMAP
7060
F860
D840
D8C0
18C0
3080
39B8
19FC
DB64
DB66
FA64
763C
063C
0464
0C66
0C66
187C
183C
ENDCHAR
STARTCHAR fiveeighths
ENCODING 8541
SWIDTH 653 0
DWIDTH 16 0
BBX 15 18 1 0
BITMAP
F860
F860
C040
C0C0
F0C0
F880
D9B8
19FC
DB64
DB66
FA64
263C
063C
0464
0C66
0C66
187C
183C
ENDCHAR
STARTCHAR seveneighths
ENCODING 8542
SWIDTH 653 0
DWIDTH 16 0
BBX 15 18 1 0
BITMAP
F860
F860
1840
18C0
10C0
3080
31B8
21FC
6364
6366
6264
063C
063C
0464
0C66
0C66
187C
183C
ENDCHAR
STARTCHAR partialdiff
ENCODING 8706
SWIDTH 428 0
DWIDTH 11 0
BBX 9 18 1 0
BITMAP
1E00
3F00
7780
6380
6380
0380
0380
7B80
FF80
E700
E300
E300
E300
E700
E700
EF00
FE00
3C00
ENDCHAR
STARTCHAR emptyset
ENCODING 8709
SWIDTH 734 0
DWIDTH 18 0
BBX 16 16 1 1
BITMAP
07E2
1FF7
3FFE
3C1E
703E
7077
E0E7
E1C7
E387
6707
7E07
7C0E
3C1E
7FFC
EFF8
23E0
ENDCHAR
STARTCHAR uni2206
ENCODING 8710
SWIDTH 401 0
DWIDTH 10 0
BBX 10 18 0 0
BITMAP
1E00
1E00
1E00
1E00
3F00
3F00
3700
3700
3300
3300
7380
7380
7380
6380
6380
7F80
7F80
FFC0
ENDCHAR
STARTCHAR product
ENCODING 8719
SWIDTH 465 0
DWIDTH 12 0
BBX 9 22 1 -4
BITMAP
FF80
FF80
FF80
E180
E180
E180
E180
E180
E180
E180
E180
E180
E180
E180
E180
E180
E180
E180
E180
E180
E180
E180
ENDCHAR
STARTCHAR summation
ENCODING 8721
SWIDTH 411 0
DWIDTH 10 0
BBX 9 22 1 -4
BITMAP
FF80
FF80
FF80
E000
E000
7000
3000
3800
1C00
1C00
0E00
0E00
0C00
1C00
3800
3800
7000
7000
E000
FF80
FF80
FF80
ENDCHAR
STARTCHAR minus
ENCODING 8722
SWIDTH 400 0
DWIDTH 10 0
BBX 8 2 1 8
BITMAP
FF
FF
ENDCHAR
STARTCHAR uni2215
ENCODING 8725
SWIDTH 400 0
DWIDTH 10 0
BBX 10 18 0 0
BITMAP
01C0
0180
0180
0300
0300
0700
0600
0600
0C00
0C00
1C00
1800
1800
3000
3000
7000
6000
E000
ENDCHAR
STARTCHAR uni2219
ENCODING 8729
SWIDTH 220 0
DWIDTH 6 0
BBX 3 3 1 7
BITMAP
E0
E0
E0
ENDCHAR
STARTCHAR radical
ENCODING 8730
SWIDTH 475 0
DWIDTH 12 0
BBX 12 19 0 -1
BITMAP
0070
0060
0060
0060
00E0
00C0
00C0
00C0
F0C0
F180
3980
3980
1980
1B00
1F00
1F00
1F00
0E00
0E00
ENDCHAR
STARTCHAR infinity
ENCODING 8734
SWIDTH 643 0
DWIDTH 16 0
BBX 14 8 1 5
BITMAP
7878
FCFC
C78C
C30C
C30C
C78C
FCFC
7878
ENDCHAR
STARTCHAR integral
ENCODING 8747
SWIDTH 400 0
DWIDTH 10 0
BBX 8 23 1 -4
BITMAP
0F
1F
1D
18
18
18
18
18
18
18
18
18
18
18
18
18
18
18
18
18
B8
F8
F0
ENDCHAR
STARTCHAR approxequal
ENCODING 8776
SWIDTH 400 0
DWIDTH 10 0
BBX 10 8 0 5
BITMAP
3880
7DC0
EF80
4700
0000
38C0
7F80
C700
ENDCHAR
STARTCHAR notequal
ENCODING 8800
SWIDTH 400 0
DWIDTH 10 0
BBX 8 11 1 4
BITMAP
03
03
06
FF
FF
18
18
FF
FF
60
C0
ENDCHAR
STARTCHAR lessequal
ENCODING 8804
SWIDTH 400 0
DWIDTH 10 0
BBX 8 10 1 4
BITMAP
01
0F
3E
F0
F0
3F
07
01
FF
FF
ENDCHAR
STARTCHAR greaterequal
ENCODING 8805
SWIDTH 400 0
DWIDTH 10 0
BBX 8 10 1 4
BITMAP
80
F0
7C
0F
0F
FC
E0
80
FF
FF
ENDCHAR
STARTCHAR lozenge
ENCODING 9674
SWIDTH 400 0
DWIDTH 10 0
BBX 10 18 0 0
BITMAP
0C00
0C00
1E00
1E00
1E00
3300
3300
6180
6180
E1C0
6180
3300
3300
1E00
1E00
1E00
0C00
0C00
ENDCHAR
STARTCHAR circle
ENCODING 9675
SWIDTH 738 0
DWIDTH 18 0
BBX 17 18 1 0
BITMAP
07E000
1FF800
380C00
600600
600300
C00300
C00180
800180
800180
800180
800180
C00180
C00300
600300
600600
380C00
1FF800
07E000
ENDCHAR
STARTCHAR uniE0FF
ENCODING 57599
SWIDTH 500 0
DWIDTH 13 0
BBX 1 1 0 0
BITMAP
00
ENDCHAR
STARTCHAR uniEFFD
ENCODING 61437
SWIDTH 500 0
DWIDTH 13 0
BBX 1 1 0 0
BITMAP
00
ENDCHAR
STARTCHAR uniF000
ENCODING 61440
SWIDTH 500 0
DWIDTH 13 0
BBX 1 1 0 0
BITMAP
00
ENDCHAR
STARTCHAR uniF8FF
ENCODING 63743
SWIDTH 634 0
DWIDTH 16 0
BBX 14 14 1 1
BITMAP
01E0
01E0
01E0
1FFC
7FFC
FFFC
FFFC
F1E0
F1E0
F1E0
FFE0
FFC0
7F80
1F00
ENDCHAR
STARTCHAR .notdef
ENCODING -1
SWIDTH 738 0
DWIDTH 18 0
BBX 16 17 1 0
BITMAP
FFFF
E003
F007
D00D
C819
CC31
C661
C3C1
C181
C1C1
C261
C431
CC19
D809
F005
E003
FFFF
ENDCHAR
STARTCHAR NULL
ENCODING -1
SWIDTH 0 0
DWIDTH 0 0
BBX 1 1 0 0
BITMAP
00
ENDCHAR
STARTCHAR uni00A40301
ENCODING -1
SWIDTH 265 0
DWIDTH 7 0
BBX 7 22 0 0
BITMAP
0E
1C
38
00
1C
1C
1C
1C
1C
1C
1C
1C
1C
1C
1C
1C
1C
1C
1C
F8
F8
F0
ENDCHAR
STARTCHAR i.loclTRK
ENCODING -1
SWIDTH 192 0
DWIDTH 5 0
BBX 3 22 1 0
BITMAP
E0
E0
E0
00
E0
E0
E0
E0
E0
E0
E0
E0
E0
E0
E0
E0
E0
E0
E0
E0
E0
E0
ENDCHAR
STARTCHAR uni006A0301
ENCODING -1
SWIDTH 265 0
DWIDTH 7 0
BBX 7 22 0 0
BITMAP
0E
1C
38
00
1C
1C
1C
1C
1C
1C
1C
1C
1C
1C
1C
1C
1C
1C
1C
F8
F8
F0
ENDCHAR
STARTCHAR zero.lf
ENCODING -1
SWIDTH 400 0
DWIDTH 10 0
BBX 8 18 1 0
BITMAP
3C
7E
FF
E7
E7
E7
E7
E7
E7
E7
E7
E7
E7
E7
E7
FF
7E
3C
ENDCHAR
STARTCHAR one.lf
ENCODING -1
SWIDTH 291 0
DWIDTH 7 0
BBX 6 18 0 0
BITMAP
0C
1C
FC
FC
FC
1C
1C
1C
1C
1C
1C
1C
1C
1C
1C
1C
1C
1C
ENDCHAR
STARTCHAR two.lf
ENCODING -1
SWIDTH 372 0
DWIDTH 9 0
BBX 8 18 1 0
BITMAP
3C
FE
FF
C7
C7
C7
06
0E
1E
1C
38
70
E0
E0
C0
FF
FF
FF
ENDCHAR
STARTCHAR three.lf
ENCODING -1
SWIDTH 374 0
DWIDTH 9 0
BBX 9 18 0 0
BITMAP
3E00
7F00
7F00
6380
6380
0380
0300
1F00
1E00
1F00
0700
0380
E380
E380
6380
7F00
7F00
3E00
ENDCHAR
STARTCHAR four.lf
ENCODING -1
SWIDTH 398 0
DWIDTH 10 0
BBX 10 18 0 0
BITMAP
0700
0700
0F00
0F00
0F00
1B00
1B00
3B00
3300
3300
7300
6300
FFC0
FFC0
FFC0
0300
0300
0300
ENDCHAR
STARTCHAR five.lf
ENCODING -1
SWIDTH 382 0
DWIDTH 10 0
BBX 8 18 1 0
BITMAP
FE
FE
FE
E0
E0
E8
DE
FF
E7
C7
07
07
C7
C7
C7
FF
FE
3C
ENDCHAR
STARTCHAR six.lf
ENCODING -1
SWIDTH 393 0
DWIDTH 10 0
BBX 8 18 1 0
BITMAP
3C
7E
FF
E7
E3
E0
E4
FE
FF
E7
E7
E7
E7
E7
E7
FF
7E
3C
ENDCHAR
STARTCHAR seven.lf
ENCODING -1
SWIDTH 356 0
DWIDTH 9 0
BBX 9 18 0 0
BITMAP
FF80
FF80
FF80
0300
0700
0700
0600
0E00
0E00
0E00
0C00
1C00
1C00
1C00
3800
3800
3800
7000
ENDCHAR
STARTCHAR eight.lf
ENCODING -1
SWIDTH 396 0
DWIDTH 10 0
BBX 8 18 1 0
BITMAP
3C
FE
FF
E7
E7
E7
E7
FF
7E
FE
E7
C7
C7
C7
E7
FF
FE
3C
ENDCHAR
STARTCHAR nine.lf
ENCODING -1
SWIDTH 393 0
DWIDTH 10 0
BBX 8 18 1 0
BITMAP
3C
FE
FF
C7
C7
C7
C7
C7
E7
FF
FF
27
07
C7
C7
FF
FE
3C
ENDCHAR
STARTCHAR zero.dnom
ENCODING -1
SWIDTH 282 0
DWIDTH 7 0
BBX 5 12 1 0
BITMAP
70
F8
D8
D8
D8
D8
D8
D8
D8
D8
F8
70
ENDCHAR
STARTCHAR one.dnom
ENCODING -1
SWIDTH 282 0
DWIDTH 7 0
BBX 4 11 1 0
BITMAP
30
F0
30
30
30
30
30
30
30
30
30
ENDCHAR
STARTCHAR two.dnom
ENCODING -1
SWIDTH 282 0
DWIDTH 7 0
BBX 5 12 1 0
BITMAP
70
F8
D8
D8
18
10
30
60
C0
C0
F8
F8
ENDCHAR
STARTCHAR three.dnom
ENCODING -1
SWIDTH 282 0
DWIDTH 7 0
BBX 5 12 1 0
BITMAP
20
F8
D8
D8
18
30
38
18
D8
D8
F8
70
ENDCHAR
STARTCHAR four.dnom
ENCODING -1
SWIDTH 282 0
DWIDTH 7 0
BBX 5 12 1 0
BITMAP
18
38
38
38
78
58
D8
98
F8
F8
18
18
ENDCHAR
STARTCHAR five.dnom
ENCODING -1
SWIDTH 282 0
DWIDTH 7 0
BBX 5 12 1 0
BITMAP
F8
F8
C0
C0
F8
F8
D8
18
18
D8
F8
70
ENDCHAR
STARTCHAR six.dnom
ENCODING -1
SWIDTH 282 0
DWIDTH 7 0
BBX 5 12 1 0
BITMAP
70
F8
D8
C0
F0
F8
D8
D8
D8
D8
F8
70
ENDCHAR
STARTCHAR seven.dnom
ENCODING -1
SWIDTH 282 0
DWIDTH 7 0
BBX 5 11 1 0
BITMAP
F8
F8
18
18
10
30
30
20
60
60
60
ENDCHAR
STARTCHAR eight.dnom
ENCODING -1
SWIDTH 282 0
DWIDTH 7 0
BBX 5 12 1 0
BITMAP
70
F8
D8
D8
D8
F8
F8
D8
D8
D8
F8
70
ENDCHAR
STARTCHAR nine.dnom
ENCODING -1
SWIDTH 282 0
DWIDTH 7 0
BBX 5 12 1 0
BITMAP
70
F8
D8
D8
D8
D8
F8
78
18
D8
F8
70
ENDCHAR
STARTCHAR zero.numr
ENCODING -1
SWIDTH 282 0
DWIDTH 7 0
BBX 5 12 1 6
BITMAP
70
F8
D8
D8
D8
D8
D8
D8
D8
D8
F8
70
ENDCHAR
STARTCHAR one.numr
ENCODING -1
SWIDTH 282 0
DWIDTH 7 0
BBX 4 11 1 7
BITMAP
30
F0
30
30
30
30
30
30
30
30
30
ENDCHAR
STARTCHAR two.numr
ENCODING -1
SWIDTH 282 0
DWIDTH 7 0
BBX 5 12 1 6
BITMAP
70
F8
D8
D8
18
10
30
60
C0
C0
F8
F8
ENDCHAR
STARTCHAR three.numr
ENCODING -1
SWIDTH 282 0
DWIDTH 7 0
BBX 5 12 1 6
BITMAP
70
F8
D8
D8
18
30
38
18
D8
D8
F8
70
ENDCHAR
STARTCHAR four.numr
ENCODING -1
SWIDTH 282 0
DWIDTH 7 0
BBX 5 11 1 7
BITMAP
18
38
38
78
58
D8
D8
F8
F8
18
18
ENDCHAR
STARTCHAR five.numr
ENCODING -1
SWIDTH 282 0
DWIDTH 7 0
BBX 5 12 1 6
BITMAP
F8
F8
C0
C0
F0
F8
D8
18
D8
D8
F8
20
ENDCHAR
STARTCHAR six.numr
ENCODING -1
SWIDTH 282 0
DWIDTH 7 0
BBX 5 12 1 6
BITMAP
70
F8
C8
C0
F0
F8
D8
D8
D8
D8
F8
70
ENDCHAR
STARTCHAR seven.numr
ENCODING -1
SWIDTH 282 0
DWIDTH 7 0
BBX 5 11 1 7
BITMAP
F8
F8
18
18
10
30
30
20
60
60
60
ENDCHAR
STARTCHAR eight.numr
ENCODING -1
SWIDTH 282 0
DWIDTH 7 0
BBX 5 12 1 6
BITMAP
70
F8
D8
D8
D8
F8
F8
D8
D8
D8
F8
70
ENDCHAR
STARTCHAR nine.numr
ENCODING -1
SWIDTH 282 0
DWIDTH 7 0
BBX 5 12 1 6
BITMAP
70
F8
D8
D8
D8
D8
F8
78
18
D8
F8
70
ENDCHAR
STARTCHAR uni030C.alt
ENCODING -1
SWIDTH 0 0
DWIDTH 0 0
BBX 2 5 -1 13
BITMAP
C0
C0
C0
C0
80
ENDCHAR
ENDFONT
